<svg xmlns="http://www.w3.org/2000/svg" xmlns:xlink="http://www.w3.org/1999/xlink" fill="none" version="1.1" width="20" height="14" viewBox="0 0 20 14"><defs><clipPath id="master_svg0_332_09776"><rect x="0" y="0" width="20" height="14" rx="0"/></clipPath></defs><g style="opacity:0.5;" clip-path="url(#master_svg0_332_09776)"><path d="M2.3053594,0L8.5971556,0C9.8660126,0,10.513665,0.0014118254,11.087656,0.1405358C12.118576,0.39041042,13.044991,0.96296626,13.729527,1.773302C14.11066,2.2244768,14.401562,2.803124,14.969012,3.938024C15.239369,4.4787378,15.37957,4.7642703,15.383127,4.9837208C15.389414,5.3715205,15.164808,5.7349401,14.815139,5.9027462C14.617266,5.9977055,14.299177,6,13.694641,6L7.4028444,6C6.1339879,6,5.4863343,5.9985881,4.9123435,5.8594642C3.8814235,5.6095896,2.9550087,5.0370336,2.2704728,4.2266979C1.8893402,3.7755232,1.5984379,3.1968758,1.030988,2.061976C0.76063108,1.5212622,0.62042999,1.2357299,0.61687249,1.0162793C0.61058587,0.62847966,0.83519155,0.26505998,1.1848615,0.097253636C1.3827351,0.0022942573,1.7008228,0,2.3053594,0" fill-rule="evenodd" fill="#DA8D00" fill-opacity="1"/><path d="M6.3053594,8L12.5971556,8C13.8660126,8,14.513665,8.0014118254,15.087656,8.1405358C16.118575999999997,8.39041042,17.044991,8.96296626,17.729526999999997,9.773302C18.11066,10.2244768,18.401562,10.803124,18.969012,11.938024C19.239369,12.478737800000001,19.37957,12.7642703,19.383127,12.9837208C19.389414000000002,13.371520499999999,19.164808,13.7349401,18.815139000000002,13.9027462C18.617266,13.9977055,18.299177,14,17.694641,14L11.4028444,14C10.133987900000001,14,9.4863343,13.9985881,8.9123435,13.8594642C7.8814235,13.6095896,6.9550087000000005,13.0370336,6.2704728,12.2266979C5.8893401999999995,11.7755232,5.5984379,11.1968758,5.030988,10.061976C4.76063108,9.5212622,4.62042999,9.235729899999999,4.61687249,9.0162793C4.6105858699999995,8.62847966,4.83519155,8.26505998,5.1848615,8.097253636C5.3827351,8.0022942573,5.7008228,8,6.3053594,8" fill-rule="evenodd" fill="#DA8D00" fill-opacity="1"/></g></svg>