<svg xmlns="http://www.w3.org/2000/svg" xmlns:xlink="http://www.w3.org/1999/xlink" fill="none" version="1.1" width="20" height="14" viewBox="0 0 20 14"><defs><clipPath id="master_svg0_332_09779"><rect x="20" y="0" width="20" height="14" rx="0"/></clipPath></defs><g transform="matrix(-1,0,0,1,40,0)" style="opacity:0.5;" clip-path="url(#master_svg0_332_09779)"><path d="M22.3053594,0L28.5971556,0C29.866012599999998,0,30.513665,0.0014118254,31.087656000000003,0.1405358C32.118576,0.39041042,33.044990999999996,0.96296626,33.729527,1.773302C34.110659999999996,2.2244768,34.401562,2.803124,34.969012,3.938024C35.239368999999996,4.4787378,35.37957,4.7642703,35.383127,4.9837208C35.389414,5.3715205,35.164808,5.7349401,34.815139,5.9027462C34.617266,5.9977055,34.299177,6,33.694641000000004,6L27.4028444,6C26.1339879,6,25.4863343,5.9985881,24.9123435,5.8594642C23.8814235,5.6095896,22.9550087,5.0370336,22.2704728,4.2266979C21.8893402,3.7755232,21.5984379,3.1968758,21.030988,2.061976C20.76063108,1.5212622,20.62042999,1.2357299,20.61687249,1.0162793C20.61058587,0.62847966,20.83519155,0.26505998,21.1848615,0.097253636C21.3827351,0.0022942573,21.7008228,0,22.3053594,0" fill-rule="evenodd" fill="#DA8D00" fill-opacity="1"/><path d="M26.3053594,8L32.5971556,8C33.8660126,8,34.513665,8.0014118254,35.087656,8.1405358C36.118576,8.39041042,37.044990999999996,8.96296626,37.729527,9.773302C38.110659999999996,10.2244768,38.401562,10.803124,38.969012,11.938024C39.239368999999996,12.478737800000001,39.37957,12.7642703,39.383127,12.9837208C39.389414,13.371520499999999,39.164808,13.7349401,38.815139,13.9027462C38.617266,13.9977055,38.299177,14,37.694641000000004,14L31.4028444,14C30.1339879,14,29.4863343,13.9985881,28.9123435,13.8594642C27.8814235,13.6095896,26.9550087,13.0370336,26.2704728,12.2266979C25.8893402,11.7755232,25.5984379,11.1968758,25.030988,10.061976C24.76063108,9.5212622,24.62042999,9.235729899999999,24.61687249,9.0162793C24.61058587,8.62847966,24.83519155,8.26505998,25.1848615,8.097253636C25.3827351,8.0022942573,25.7008228,8,26.3053594,8" fill-rule="evenodd" fill="#DA8D00" fill-opacity="1"/></g></svg>