<svg xmlns="http://www.w3.org/2000/svg" xmlns:xlink="http://www.w3.org/1999/xlink" fill="none" version="1.1" width="60" height="60" viewBox="0 0 60 60"><defs><clipPath id="master_svg0_332_09465"><rect x="0" y="0" width="60" height="60" rx="0"/></clipPath><linearGradient x1="0.8401631712913513" y1="0.7277845740318298" x2="-0.08363407582668166" y2="0.37387109775789285" id="master_svg1_0_11062"><stop offset="0%" stop-color="#43B3FF" stop-opacity="1"/><stop offset="100%" stop-color="#1947FF" stop-opacity="1"/></linearGradient><clipPath id="bgblur_master_svg2_332_09471_clip_path"><path d="M6.1159873 1.7435929L18.561337 5.2916093C18.724545 5.3381371 18.806437 5.3614583 18.889435 5.3706918C18.962915 5.3788662 19.037085 5.3788662 19.110565 5.3706918C19.193563 5.3614583 19.275455 5.3381371 19.438662 5.2916093L31.884012 1.7435927C33.960419 1.1516346 35.029572 0.8526507 35.848152 1.0954546C36.543983 1.3018492 37.147221 1.7571481 37.53648 2.3697286C37.994408 3.0903733 38 4.2005329 38 6.3596711L38 22.752895C38 24.484324 37.997658 25.364395 37.697639 26.09059C37.436695 26.722206 37.017429 27.277704 36.481556 27.701817C35.86544 28.189434 35.019733 28.432972 33.354649 28.907667L19.438663 32.874943C19.275455 32.921471 19.193563 32.944801 19.110565 32.954029C19.037085 32.9622 18.962915 32.9622 18.889435 32.954029C18.806437 32.944801 18.724545 32.921471 18.561338 32.874943L4.6453514 28.907667C2.9802651 28.432972 2.1345592 28.189434 1.5184442 27.701817C0.98256952 27.277704 0.56330454 26.722206 0.30236053 26.09059C0.0023429692 25.364395 0 24.484324 0 22.752895L0 6.3596711C0 4.2005329 0.0055947602 3.0903742 0.46352109 2.3697286C0.85277849 1.7571481 1.4560182 1.3018492 2.1518469 1.0954546C2.9704266 0.85264987 4.0395813 1.1516349 6.1159873 1.7435929"/></clipPath><filter id="master_svg3_332_09470" filterUnits="objectBoundingBox" color-interpolation-filters="sRGB" x="-0.5" y="-0.7869332764971286" width="2" height="2.888639863593109"><feFlood flood-opacity="0" result="BackgroundImageFix"/><feColorMatrix in="SourceAlpha" type="matrix" values="0 0 0 0 0 0 0 0 0 0 0 0 0 0 0 0 0 0 127 0"/><feOffset dy="1" dx="0"/><feGaussianBlur stdDeviation="1.5"/><feColorMatrix type="matrix" values="0 0 0 0 0 0 0 0 0 0.3177970349788666 0 0 0 0 0.9131027460098267 0 0 0 0.2589569091796875 0"/><feBlend mode="normal" in2="BackgroundImageFix" result="effect1_dropShadow"/><feBlend mode="normal" in="SourceGraphic" in2="effect1_dropShadow" result="shape"/></filter><filter id="master_svg4_332_09472" filterUnits="objectBoundingBox" color-interpolation-filters="sRGB" x="-0.5" y="-0.7869332764971286" width="2" height="2.888639863593109"><feFlood flood-opacity="0" result="BackgroundImageFix"/><feColorMatrix in="SourceAlpha" type="matrix" values="0 0 0 0 0 0 0 0 0 0 0 0 0 0 0 0 0 0 127 0"/><feOffset dy="1" dx="0"/><feGaussianBlur stdDeviation="1.5"/><feColorMatrix type="matrix" values="0 0 0 0 0 0 0 0 0 0.3177970349788666 0 0 0 0 0.9131027460098267 0 0 0 0.2589569091796875 0"/><feBlend mode="normal" in2="BackgroundImageFix" result="effect1_dropShadow"/><feBlend mode="normal" in="SourceGraphic" in2="effect1_dropShadow" result="shape"/></filter><filter id="master_svg5_332_09473" filterUnits="objectBoundingBox" color-interpolation-filters="sRGB" x="-0.7191378652309184" y="-0.43449993531661996" width="2.4382757304618368" height="2.042799844759888"><feFlood flood-opacity="0" result="BackgroundImageFix"/><feColorMatrix in="SourceAlpha" type="matrix" values="0 0 0 0 0 0 0 0 0 0 0 0 0 0 0 0 0 0 127 0"/><feOffset dy="1" dx="0"/><feGaussianBlur stdDeviation="1.5"/><feColorMatrix type="matrix" values="0 0 0 0 0 0 0 0 0 0.3177970349788666 0 0 0 0 0.9131027460098267 0 0 0 0.2589569091796875 0"/><feBlend mode="normal" in2="BackgroundImageFix" result="effect1_dropShadow"/><feBlend mode="normal" in="SourceGraphic" in2="effect1_dropShadow" result="shape"/></filter></defs><g clip-path="url(#master_svg0_332_09465)"><path d="M12.1440001,17.7920001L29.552,22.8693333C29.71862,22.9179311,29.80224,22.9422932,29.887039,22.9519334C29.962103,22.9604669,30.037897,22.9604669,30.112961,22.9519334C30.19776,22.9422932,30.28138,22.9179311,30.448,22.8693333L47.855999,17.7920003C49.940342,17.1840665,51.013744,16.87687272,51.836159,17.11712C52.535038,17.32128,53.141758,17.77632,53.53344,18.39008C53.994354,19.1123266,54,20.2288094,54,22.4000001L54,40.199999C54,41.921295,53.997692,42.796103,53.700478,43.51936C53.441917,44.148551999999995,53.026344,44.70265,52.494717,45.127041C51.88361,45.614878000000004,51.044441,45.862038,49.391998,46.344L30.448,51.869331C30.28138,51.917934,30.19776,51.942295,30.112961,51.951935C30.037897,51.960468,29.962103,51.960468,29.887039,51.951935C29.80224,51.942295,29.71862,51.917934,29.552,51.869335L10.6080008,46.344C8.955556399999999,45.862038,8.1163862,45.61488,7.5052803,45.127041C6.97365355,44.70265,6.5580802,44.148551999999995,6.29952011,43.51936C6.0023053885,42.796103,6,41.921295,6,40.199999L6,22.4000001C6,20.2288094,6.0056471229,19.1123273,6.46656004,18.39008C6.85824007,17.77632,7.46496,17.32128,8.1638401,17.11712C8.9862533,16.87687302,10.059657099999999,17.1840668,12.1440001,17.7920001" fill-rule="evenodd" fill="url(#master_svg1_0_11062)" fill-opacity="1"/><foreignObject x="11" y="10" width="38" height="33"><div xmlns="http://www.w3.org/1999/xhtml" style="backdrop-filter:blur(5px);-webkit-backdrop-filter:blur(5px);clip-path:url(#bgblur_master_svg2_332_09471_clip_path);height:100%;width:100%"></div></foreignObject><path d="M17.1159873,11.7435929L29.561337,15.291609300000001C29.724545,15.3381371,29.806437,15.361458299999999,29.889435,15.3706918C29.962915,15.378866200000001,30.037085,15.378866200000001,30.110565,15.3706918C30.193563,15.361458299999999,30.275455,15.3381371,30.438662,15.291609300000001L42.884012,11.7435927C44.960419,11.1516346,46.029572,10.8526507,46.848152,11.0954546C47.543983,11.3018492,48.147221,11.7571481,48.53648,12.3697286C48.994408,13.0903733,49,14.200532899999999,49,16.3596711L49,32.752894999999995C49,34.484324,48.997658,35.364395,48.697639,36.09059C48.436695,36.722206,48.017429,37.277704,47.481556,37.701817C46.86544,38.189434,46.019733,38.432972,44.354649,38.907667000000004L30.438663,42.874943C30.275455,42.921471,30.193563,42.944801,30.110565,42.954029C30.037085,42.9622,29.962915,42.9622,29.889435,42.954029C29.806437,42.944801,29.724545,42.921471,29.561338,42.874943L15.6453514,38.907667000000004C13.9802651,38.432972,13.1345592,38.189434,12.5184442,37.701817C11.98256952,37.277704,11.56330454,36.722206,11.30236053,36.09059C11.0023429692,35.364395,11,34.484324,11,32.752894999999995L11,16.3596711C11,14.200532899999999,11.0055947602,13.0903742,11.46352109,12.3697286C11.85277849,11.7571481,12.456018199999999,11.3018492,13.151846899999999,11.0954546C13.9704266,10.85264987,15.0395813,11.1516349,17.1159873,11.7435929" fill-rule="evenodd" fill="#FFFFFF" fill-opacity="0.1599999964237213"/><path d="M17.1159873,11.7435929L29.561337,15.291609300000001C29.724545,15.3381371,29.806437,15.361458299999999,29.889435,15.3706918C29.962915,15.378866200000001,30.037085,15.378866200000001,30.110565,15.3706918C30.193563,15.361458299999999,30.275455,15.3381371,30.438662,15.291609300000001L42.884012,11.7435927C44.960419,11.1516346,46.029572,10.8526507,46.848152,11.0954546C47.543983,11.3018492,48.147221,11.7571481,48.53648,12.3697286C48.994408,13.0903733,49,14.200532899999999,49,16.3596711L49,32.752894999999995C49,34.484324,48.997658,35.364395,48.697639,36.09059C48.436695,36.722206,48.017429,37.277704,47.481556,37.701817C46.86544,38.189434,46.019733,38.432972,44.354649,38.907667000000004L30.438663,42.874943C30.275455,42.921471,30.193563,42.944801,30.110565,42.954029C30.037085,42.9622,29.962915,42.9622,29.889435,42.954029C29.806437,42.944801,29.724545,42.921471,29.561338,42.874943L15.6453514,38.907667000000004C13.9802651,38.432972,13.1345592,38.189434,12.5184442,37.701817C11.98256952,37.277704,11.56330454,36.722206,11.30236053,36.09059C11.0023429692,35.364395,11,34.484324,11,32.752894999999995L11,16.3596711C11,14.200532899999999,11.0055947602,13.0903742,11.46352109,12.3697286C11.85277849,11.7571481,12.456018199999999,11.3018492,13.151846899999999,11.0954546C13.9704266,10.85264987,15.0395813,11.1516349,17.1159873,11.7435929" fill-rule="evenodd" fill="#FFFFFF" fill-opacity="0.1599999964237213"/><path d="M17.1159873,11.7435929L29.561337,15.291609300000001C29.724545,15.3381371,29.806437,15.361458299999999,29.889435,15.3706918C29.962915,15.378866200000001,30.037085,15.378866200000001,30.110565,15.3706918C30.193563,15.361458299999999,30.275455,15.3381371,30.438662,15.291609300000001L42.884012,11.7435927C44.960419,11.1516346,46.029572,10.8526507,46.848152,11.0954546C47.543983,11.3018492,48.147221,11.7571481,48.53648,12.3697286C48.994408,13.0903733,49,14.200532899999999,49,16.3596711L49,32.752894999999995C49,34.484324,48.997658,35.364395,48.697639,36.09059C48.436695,36.722206,48.017429,37.277704,47.481556,37.701817C46.86544,38.189434,46.019733,38.432972,44.354649,38.907667000000004L30.438663,42.874943C30.275455,42.921471,30.193563,42.944801,30.110565,42.954029C30.037085,42.9622,29.962915,42.9622,29.889435,42.954029C29.806437,42.944801,29.724545,42.921471,29.561338,42.874943L15.6453514,38.907667000000004C13.9802651,38.432972,13.1345592,38.189434,12.5184442,37.701817C11.98256952,37.277704,11.56330454,36.722206,11.30236053,36.09059C11.0023429692,35.364395,11,34.484324,11,32.752894999999995L11,16.3596711C11,14.200532899999999,11.0055947602,13.0903742,11.46352109,12.3697286C11.85277849,11.7571481,12.456018199999999,11.3018492,13.151846899999999,11.0954546C13.9704266,10.85264987,15.0395813,11.1516349,17.1159873,11.7435929ZM17.0063219,12.1282661Q15.2143912,11.6174088,14.5882618,11.4995888Q13.7363982,11.3392922,13.2655957,11.4789398Q12.326481900000001,11.7574975,11.80112702,12.5842566Q11.53775263,12.998732799999999,11.45835677,13.8619037Q11.40000004,14.4963422,11.40000004,16.3596711L11.39999995,32.752894999999995Q11.39999998,35.27935,11.67205292,35.937857Q12.0305247,36.80554,12.7666814,37.388165Q13.3253658,37.830330000000004,15.7550168,38.522995L29.671003,42.490273Q29.883829,42.550945,29.933651,42.55648Q30.000002,42.563862,30.066372,42.55648Q30.116175,42.550945,30.328999,42.490273L44.244987,38.522995Q46.674637,37.830330000000004,47.233318,37.388166Q47.969471,36.805542,48.32795,35.937859Q48.600002,35.279346000000004,48.600002,32.752894999999995L48.600002,16.3596711Q48.600002,14.4963574,48.541645,13.8619025Q48.46225,12.9987297,48.198875,12.5842569Q47.673519,11.7574975,46.734406,11.478940399999999Q46.263603,11.3392929,45.411739,11.499589Q44.785606,11.6174093,42.993680999999995,12.1282661L30.548328,15.6762824Q30.271196,15.755289999999999,30.154791,15.768239999999999Q30.000002,15.785459,29.845207,15.7682395Q29.728807,15.755289999999999,29.451672,15.6762824L17.0063219,12.1282661Z" fill-rule="evenodd" fill="#FFFFFF" fill-opacity="0.699999988079071"/><path d="M16.8334897,18.51242656L25.944209,21.0587046C26.568386,21.2331507,27,21.8019323,27,22.4500284C27,23.4063497,26.087538000000002,24.0987625,25.166511,23.8413525L16.0557911,21.295074200000002C15.43161392,21.1206281,15,20.5518463,15,19.9037502C15,18.94742876,15.91246271,18.25501651,16.8334897,18.51242656" fill-rule="evenodd" fill="#FFFFFF" fill-opacity="1" filter="url(#master_svg3_332_09470)"/><path d="M16.8334897,26.51242656L25.944209,29.0587046C26.568386,29.2331507,27,29.8019323,27,30.4500284C27,31.4063497,26.087538000000002,32.0987625,25.166511,31.8413525L16.0557911,29.295074200000002C15.43161392,29.1206281,15,28.5518463,15,27.9037502C15,26.94742876,15.91246271,26.25501651,16.8334897,26.51242656" fill-rule="evenodd" fill="#FFFFFF" fill-opacity="1" filter="url(#master_svg4_332_09472)"/><path d="M46.862399124999996,19.048298975C47.014562624999996,18.145893395,46.319013125,17.3232421875,45.403868725,17.3232421875C44.681879525,17.3232421875,44.065385825,17.844485935,43.945338725,18.556425475L42.741355925,25.696654275L40.246253825,25.316559275C39.348649145,25.179821475,38.5400390625,25.874579475,38.5400390625,26.782539375C38.5400390625,27.515281875,39.075224105,28.138167875,39.799609025,28.248518875000002L43.296316125,28.781195875C43.410638825,28.798610875,43.523518125,28.802538875,43.633466725,28.794254875C43.738910725,28.818096875000002,43.848919825,28.830723875,43.962299325000004,28.830723875C44.684288525,28.830723875,45.300782725,28.309479875,45.420829725,27.597540875L46.862399124999996,19.048298975Z" fill-rule="evenodd" fill="#FFFFFF" fill-opacity="1" transform="matrix(0.8660253882408142,0.5,-0.5,0.8660253882408142,13.826603542664088,-16.94924066227395)" filter="url(#master_svg5_332_09473)"/></g></svg>