<svg xmlns="http://www.w3.org/2000/svg" xmlns:xlink="http://www.w3.org/1999/xlink" fill="none" version="1.1" width="16.000001907348633" height="16" viewBox="0 0 16.000001907348633 16"><defs><clipPath id="master_svg0_32_10765"><rect x="15.400001883506775" y="-0.6000000238418579" width="17.200000047683716" height="17.20000195503235" rx="0"/></clipPath></defs><g transform="matrix(0,1,-1,0,16.000001907348633,-16.000001907348633)" clip-path="url(#master_svg0_32_10765)"><path d="M24.000083254223632,4.84852821L26.909152054223632,7.7575974L26.909236954223633,7.7575123Q26.99361135422363,7.841887,27.103852254223632,7.8875499Q27.214093254223634,7.9332132,27.33341645422363,7.9332132Q27.392498954223633,7.933213,27.450447054223634,7.9216862Q27.50839425422363,7.9101596,27.56298015422363,7.8875496Q27.617565654223633,7.8649397,27.666691754223635,7.8321149000000005Q27.715817454223632,7.7992902,27.757595554223634,7.7575123Q27.799373654223633,7.7157342,27.832198154223633,7.6666083Q27.865022654223633,7.6174827,27.887632354223634,7.5628967Q27.910243054223635,7.5083113,27.92176965422363,7.4503636Q27.933296154223633,7.392416,27.933296654223632,7.3333333Q27.933296154223633,7.2140097999999995,27.88763335422363,7.1037691Q27.841970454223635,6.993528599999999,27.757596054223633,6.9091542L27.757680854223633,6.9090693000000005L24.424347354223634,3.57573593Q24.382560754223633,3.53394958,24.333425254223634,3.50111824Q24.28428935422363,3.46828693,24.229692954223633,3.44567233Q24.175096254223632,3.42305773,24.117136954223632,3.41152894Q24.05917765422363,3.4000000999999997,24.000082954223632,3.40000004Q23.94098805422363,3.4000000999999997,23.883028754223634,3.41152889Q23.825069454223634,3.42305773,23.77047295422363,3.44567233Q23.715876554223634,3.46828693,23.666740854223633,3.50111827Q23.617605454223632,3.53394958,23.57581925422363,3.57573593L20.242485884223633,6.9090693000000005L20.24257066422363,6.9091542Q20.158196214223633,6.993528400000001,20.112533094223632,7.1037688Q20.066869974223632,7.2140094999999995,20.066869914223634,7.3333333Q20.066869974223632,7.392416,20.078396494223632,7.4503636Q20.089923024223634,7.5083113,20.112533154223634,7.5628969999999995Q20.135143224223633,7.6174827,20.167967974223632,7.6666086Q20.200792734223633,7.7157342,20.24257075422363,7.7575123Q20.28434878422363,7.7992902,20.33347451422363,7.8321147Q20.38260024422363,7.8649397,20.437185834223634,7.8875496Q20.491771434223633,7.9101596,20.549719184223633,7.9216864000000005Q20.607666932223633,7.933213,20.666749954223633,7.9332132Q20.78607347422363,7.9332128,20.896314044223633,7.8875496Q21.006554604223634,7.8418868,21.09092912422363,7.7575126L21.091014024223632,7.7575974L24.000083254223632,4.84852821Z" fill-rule="evenodd" fill="#191C1E" fill-opacity="1" style="mix-blend-mode:passthrough"/><path d="M24.000083254223632,8.84852821L26.909152054223632,11.7575974L26.909236954223633,11.7575123Q26.99361135422363,11.841887,27.103852254223632,11.8875499Q27.214093254223634,11.9332132,27.33341645422363,11.9332132Q27.392498954223633,11.933213,27.450447054223634,11.9216862Q27.50839425422363,11.9101596,27.56298015422363,11.8875496Q27.617565654223633,11.8649397,27.666691754223635,11.8321149Q27.715817454223632,11.7992902,27.757595554223634,11.7575123Q27.799373654223633,11.7157342,27.832198154223633,11.6666083Q27.865022654223633,11.6174827,27.887632354223634,11.5628967Q27.910243054223635,11.508311299999999,27.92176965422363,11.4503636Q27.933296154223633,11.392416,27.933296654223632,11.3333333Q27.933296154223633,11.2140098,27.88763335422363,11.103769100000001Q27.841970454223635,10.9935286,27.757596054223633,10.9091542L27.757680854223633,10.9090693L24.424347354223634,7.5757359300000005Q24.382560754223633,7.53394958,24.333425254223634,7.50111824Q24.28428935422363,7.46828693,24.229692954223633,7.44567233Q24.175096254223632,7.42305773,24.117136954223632,7.41152894Q24.05917765422363,7.4000001,24.000082954223632,7.40000004Q23.94098805422363,7.4000001,23.883028754223634,7.41152889Q23.825069454223634,7.42305773,23.77047295422363,7.44567233Q23.715876554223634,7.46828693,23.666740854223633,7.50111827Q23.617605454223632,7.53394958,23.57581925422363,7.5757359300000005L20.242485884223633,10.9090693L20.24257066422363,10.9091542Q20.158196214223633,10.9935284,20.112533094223632,11.103768800000001Q20.066869974223632,11.2140095,20.066869914223634,11.3333333Q20.066869974223632,11.392416,20.078396494223632,11.4503636Q20.089923024223634,11.508311299999999,20.112533154223634,11.562897Q20.135143224223633,11.6174827,20.167967974223632,11.6666086Q20.200792734223633,11.7157342,20.24257075422363,11.7575123Q20.28434878422363,11.7992902,20.33347451422363,11.8321147Q20.38260024422363,11.8649397,20.437185834223634,11.8875496Q20.491771434223633,11.9101596,20.549719184223633,11.9216864Q20.607666932223633,11.933213,20.666749954223633,11.9332132Q20.78607347422363,11.9332128,20.896314044223633,11.8875496Q21.006554604223634,11.841886800000001,21.09092912422363,11.7575126L21.091014024223632,11.7575974L24.000083254223632,8.84852821Z" fill-rule="evenodd" fill="#191C1E" fill-opacity="1" style="mix-blend-mode:passthrough"/></g></svg>