<svg xmlns="http://www.w3.org/2000/svg" xmlns:xlink="http://www.w3.org/1999/xlink" fill="none" version="1.1" width="16" height="16" viewBox="0 0 16 16"><defs><clipPath id="master_svg0_32_09618"><rect x="0" y="0" width="16" height="16" rx="0"/></clipPath></defs><g clip-path="url(#master_svg0_32_09618)"><path d="M14,3.9999999438604736C14,4.368189853860473,13.7015233,4.6666666538604735,13.3333335,4.6666666538604735L6.66666669,4.6666666538604735C6.29847685,4.6666666538604735,6,4.368189853860473,6,3.9999999438604736C6,3.6318101038604738,6.29847685,3.3333332538604736,6.66666669,3.3333332538604736L13.3333335,3.3333332538604736C13.7015233,3.3333332538604736,14,3.6318101038604738,14,3.9999999438604736L14,3.9999999438604736Z" fill="#1947FF" fill-opacity="1"/><path d="M14,8.000000182279052C14,8.368190092279052,13.7015233,8.666666892279054,13.3333335,8.666666892279054L6.66666669,8.666666892279054C6.29847685,8.666666892279054,6,8.368190092279052,6,8.000000182279052C6,7.631810342279053,6.29847685,7.333333492279053,6.66666669,7.333333492279053L13.3333335,7.333333492279053C13.7015233,7.333333492279053,14,7.631810342279053,14,8.000000182279052L14,8.000000182279052Z" fill="#1947FF" fill-opacity="1"/><path d="M14,11.999999705441894C14,12.368189615441894,13.7015233,12.666666415441895,13.3333335,12.666666415441895L6.66666669,12.666666415441895C6.29847685,12.666666415441895,6,12.368189615441894,6,11.999999705441894C6,11.631809865441895,6.29847685,11.333333015441895,6.66666669,11.333333015441895L13.3333335,11.333333015441895C13.7015233,11.333333015441895,14,11.631809865441895,14,11.999999705441894L14,11.999999705441894Z" fill="#1947FF" fill-opacity="1"/><path d="M4.6666667,3.9966667762939454L4.6666667,4.010000076293945C4.6666667,4.742666676293945,4.0699999,5.336666776293946,3.3333334,5.336666776293946C2.59666669,5.336666776293946,2,4.742666676293945,2,4.010000076293945L2,3.9966667762939454C2,3.2640000562939453,2.59666669,2.6700000762939453,3.3333334,2.6700000762939453C4.0699999,2.6700000762939453,4.6666667,3.2640000562939453,4.6666667,3.9966667762939454L4.6666667,3.9966667762939454Z" fill="#1947FF" fill-opacity="1"/><path d="M4.6666667,7.996666776293946L4.6666667,8.010000076293945C4.6666667,8.742666676293945,4.0699999,9.336666776293946,3.3333334,9.336666776293946C2.59666669,9.336666776293946,2,8.742666676293945,2,8.010000076293945L2,7.996666776293946C2,7.264000056293945,2.59666669,6.670000076293945,3.3333334,6.670000076293945C4.0699999,6.670000076293945,4.6666667,7.264000056293945,4.6666667,7.996666776293946L4.6666667,7.996666776293946Z" fill="#1947FF" fill-opacity="1"/><path d="M4.6666667,11.996666776293946L4.6666667,12.010000076293945C4.6666667,12.742666676293945,4.0699999,13.336666776293946,3.3333334,13.336666776293946C2.59666669,13.336666776293946,2,12.742666676293945,2,12.010000076293945L2,11.996666776293946C2,11.264000056293945,2.59666669,10.670000076293945,3.3333334,10.670000076293945C4.0699999,10.670000076293945,4.6666667,11.264000056293945,4.6666667,11.996666776293946L4.6666667,11.996666776293946Z" fill="#1947FF" fill-opacity="1"/></g></svg>