<svg xmlns="http://www.w3.org/2000/svg" xmlns:xlink="http://www.w3.org/1999/xlink" fill="none" version="1.1" width="20" height="20" viewBox="0 0 20 20"><defs><clipPath id="master_svg0_32_08706"><rect x="0" y="0" width="20" height="20" rx="0"/></clipPath></defs><g clip-path="url(#master_svg0_32_08706)"><path d="M14.99869925,2.5C17.29988525,2.5,19.16536525,4.3654799,19.16536525,6.666666L19.16536525,13.333332C19.16536525,15.63452,17.29988525,17.5,14.99869925,17.5L4.99869775,17.5C2.69751165,17.5,0.83203125,15.63452,0.83203125,13.333332L0.83203125,6.666666C0.83203125,4.3654799,2.69751165,2.5,4.99869775,2.5L14.99869925,2.5ZM7.49869825,7.5L7.49869825,12.5C7.49893475,12.800022,7.66042995,13.076757,7.92152595,13.224551C8.18262195,13.372345,8.50300745,13.36838,8.76036405,13.214167L12.92703125,10.7141666C13.46556825,10.390343699999999,13.46556825,9.6096578,12.92703125,9.285833799999999L8.76036405,6.7858343C8.50300745,6.6316223,8.18262195,6.627656,7.92152595,6.7754493C7.66042995,6.9232421,7.49893475,7.1999779,7.49869825,7.5Z" fill="#1947FF" fill-opacity="1" style="mix-blend-mode:passthrough"/></g></svg>