<svg xmlns="http://www.w3.org/2000/svg" xmlns:xlink="http://www.w3.org/1999/xlink" fill="none" version="1.1" width="16" height="16" viewBox="0 0 16 16"><defs><clipPath id="master_svg0_0_17652"><rect x="-0.6000000238418579" y="-0.6000000238418579" width="17.200000047683716" height="17.200000047683716" rx="0"/></clipPath></defs><g clip-path="url(#master_svg0_0_17652)"><path d="M2.10559946,4.03333318079071Q1.39999998,5.2554670807907105,1.39999998,6.66666638079071Q1.39999992,8.077866880790712,2.10559949,9.30000058079071Q2.81119859,10.522133680790711,4.0333323,11.227733480790711Q5.2554684,11.93333328079071,6.6666665,11.93333328079071Q8.0778651,11.93333328079071,9.2999997,11.227733480790711Q10.5221338,10.522133680790711,11.2277336,9.299999580790711Q11.9333334,8.07786498079071,11.9333334,6.66666638079071Q11.9333334,5.255467580790711,11.2277336,4.03333318079071Q10.5221338,2.81119925079071,9.2999997,2.1055994807907106Q8.0778661,1.3999998607907105,6.6666665,1.3999998607907105Q5.2554677000000005,1.3999998607907105,4.0333331,2.1055992407907103Q2.81119907,2.8111987707907105,2.10559946,4.03333318079071ZM2.60000002,6.666667780790711Q2.60000002,7.75632748079071,3.14483,8.70000018079071Q3.6896598000000003,9.643672380790711,4.633331999999999,10.188503180790711Q5.5770063,10.73333348079071,6.6666665,10.73333348079071Q7.7563267,10.73333348079071,8.6999998,10.188503180790711Q9.6436734,9.643672380790711,10.1885033,8.699999680790711Q10.7333336,7.75632658079071,10.7333336,6.66666638079071Q10.7333336,5.57700618079071,10.1885033,4.6333330807907105Q9.6436739,3.6896605807907106,8.6999998,3.1448299807907105Q7.7563267,2.5999999007907104,6.6666665,2.5999999007907104Q5.5770066,2.5999999007907104,4.6333332,3.1448296807907106Q3.68966,3.6896598807907104,3.14483,4.6333330807907105Q2.60000002,5.57700618079071,2.60000002,6.666667780790711Z" fill-rule="evenodd" fill="#FFFFFF" fill-opacity="1"/><path d="M14.424264,13.575736L10.42426407,9.57573593Q10.3824777,9.53394958,10.33334211,9.50111824Q10.28420654,9.46828693,10.22961004,9.44567233Q10.17501353,9.42305773,10.11705418,9.41152894Q10.059094839,9.4000001,10,9.40000004Q9.940905161,9.4000001,9.88294582,9.41152889Q9.82498647,9.42305773,9.77038996,9.44567233Q9.71579346,9.46828693,9.66665787,9.50111827Q9.6175223,9.53394958,9.57573593,9.57573593Q9.53394958,9.6175223,9.50111824,9.66665789Q9.46828693,9.71579346,9.44567233,9.77038996Q9.42305773,9.82498647,9.41152894,9.88294582Q9.4000001,9.940905161,9.40000004,10Q9.4000001,10.059094839,9.41152889,10.11705418Q9.42305773,10.17501353,9.44567233,10.22961004Q9.46828693,10.28420654,9.50111827,10.33334213Q9.53394958,10.3824777,9.57573593,10.42426407L13.575736,14.424264Q13.6175222,14.4660501,13.6666579,14.4988813Q13.715793099999999,14.531712500000001,13.7703898,14.554327Q13.8249865,14.5769415,13.8829458,14.5884705Q13.9409051,14.5999994,14,14.5999994Q14.0590944,14.5999994,14.1170535,14.5884705Q14.175012599999999,14.5769415,14.229609499999999,14.554327Q14.2842064,14.531712500000001,14.3333421,14.4988813Q14.3824778,14.4660501,14.424264,14.424264Q14.4660501,14.3824778,14.4988813,14.3333421Q14.531712500000001,14.2842064,14.554327,14.229609499999999Q14.5769415,14.175012599999999,14.5884705,14.117054Q14.5999994,14.0590944,14.5999994,14Q14.5999994,13.9409051,14.5884705,13.8829458Q14.5769415,13.8249865,14.554327,13.7703898Q14.531712500000001,13.715793099999999,14.4988813,13.6666579Q14.4660501,13.6175222,14.424264,13.575736Z" fill-rule="evenodd" fill="#FFFFFF" fill-opacity="1"/></g></svg>