<svg xmlns="http://www.w3.org/2000/svg" xmlns:xlink="http://www.w3.org/1999/xlink" fill="none" version="1.1" width="16" height="16" viewBox="0 0 16 16"><defs><clipPath id="master_svg0_32_09634"><rect x="-0.6000000238418579" y="-0.6000000238418579" width="17.200000047683716" height="17.200000047683716" rx="0"/></clipPath></defs><g clip-path="url(#master_svg0_32_09634)"><path d="M2.0666667261395264,4.6666666538604735L2.0666667261395264,12.666667253860474Q2.0666667261395264,13.467480253860474,2.6329269001395263,14.033740253860474Q3.1991868061395263,14.599999253860474,4.000000146139526,14.599999253860474L12.000000746139527,14.599999253860474Q12.800813746139527,14.599999253860474,13.367073746139527,14.033740253860474Q13.933332746139527,13.467480253860474,13.933332746139527,12.666667253860474L13.933332746139527,4.6666666538604735Q13.933332746139527,3.8658532538604735,13.367073746139527,3.2995934078604736Q12.800813746139527,2.7333332338604737,12.000000746139527,2.7333332338604737L4.000000146139526,2.7333332338604737Q3.1991872761395266,2.7333332338604737,2.632926978139526,3.2995934858604734Q2.0666667261395264,3.865853783860474,2.0666667261395264,4.6666666538604735ZM3.4814552661395264,13.185211453860473Q3.2666667661395263,12.970422953860474,3.2666667661395263,12.666667253860474L3.2666667661395263,4.6666666538604735Q3.2666667661395263,4.362909953860473,3.481455086139526,4.148121593860473Q3.696243446139526,3.9333333338604737,4.000000146139526,3.9333332738604736L12.000000746139527,3.9333332738604736Q12.303756446139527,3.9333332738604736,12.518544946139526,4.148121773860474Q12.733334746139526,4.362910753860474,12.733334746139526,4.6666666538604735L12.733334746139526,12.666667253860474Q12.733334746139526,12.970422053860474,12.518544946139526,13.185211453860473Q12.303755546139527,13.400001253860474,12.000000746139527,13.400001253860474L4.000000146139526,13.400001253860474Q3.6962442461395266,13.400001253860474,3.4814552661395264,13.185211453860473Z" fill-rule="evenodd" fill="#191C1E" fill-opacity="1"/><path d="M10.066666335441894,2L10.066666335441894,4.6666667Q10.066666365441895,4.7257614,10.078195185441894,4.7837207Q10.089724015441895,4.84168,10.112338635441894,4.8962765Q10.134953235441895,4.9508729,10.167784575441894,5.0000086Q10.200615915441894,5.0491443,10.242402270441895,5.0909306999999995Q10.284188639441895,5.1327171,10.333324201405095,5.1655483Q10.382459767441894,5.1983798,10.437056285441894,5.2209942Q10.491652805441895,5.243609,10.549612145441895,5.255137899999999Q10.607571515441894,5.266666900000001,10.666666355441894,5.266666900000001Q10.725761205441895,5.266666900000001,10.783720555441894,5.255137899999999Q10.841679935441894,5.243609,10.896276415441895,5.2209942Q10.950872895441895,5.1983798,11.000008465441894,5.1655483Q11.049144025441894,5.1327171,11.090930465441895,5.0909306999999995Q11.132716775441894,5.0491443,11.165548145441894,5.0000086Q11.198379515441895,4.9508729,11.220994115441895,4.8962765Q11.243608715441894,4.84168,11.255137565441894,4.783721Q11.266666415441895,4.7257614,11.266666415441895,4.6666667L11.266666415441895,2Q11.266666415441895,1.940905157,11.255137565441894,1.88294581Q11.243608715441894,1.82498646,11.220994055441894,1.77038994Q11.198379455441895,1.71579343,11.165548085441895,1.6666578699999999Q11.132716775441894,1.6175223,11.090930465441895,1.57573593Q11.049144025441894,1.53394958,11.000008465441894,1.50111824Q10.950872895441895,1.46828693,10.896276415441895,1.4456723299999998Q10.841679935441894,1.4230576799999999,10.783720555441894,1.41152883Q10.725761205441895,1.39999998,10.666666355441894,1.39999998Q10.607571515441894,1.39999998,10.549612165441895,1.41152883Q10.491652805441895,1.4230576799999999,10.437056285441894,1.4456723299999998Q10.382459770441894,1.46828693,10.333324203267695,1.50111827Q10.284188639441895,1.53394958,10.242402270441895,1.57573593Q10.200615915441894,1.6175223,10.167784575441894,1.6666578699999999Q10.134953235441895,1.71579343,10.112338635441894,1.77038994Q10.089724015441895,1.82498646,10.078195185441894,1.88294581Q10.066666365441895,1.940905157,10.066666335441894,2Z" fill-rule="evenodd" fill="#191C1E" fill-opacity="1"/><path d="M4.73333332,2L4.73333332,4.6666667Q4.73333335,4.7257614,4.74486217,4.7837207Q4.756391,4.84168,4.77900562,4.8962765Q4.80162022,4.9508729,4.83445156,5.0000086Q4.8672829,5.0491443,4.909069255,5.0909306999999995Q4.950855624,5.1327171,4.9999911859632,5.1655483Q5.049126752,5.1983798,5.10372327,5.2209942Q5.15831979,5.243609,5.21627913,5.255137899999999Q5.2742385,5.266666900000001,5.33333334,5.266666900000001Q5.39242819,5.266666900000001,5.45038754,5.255137899999999Q5.50834692,5.243609,5.5629434,5.2209942Q5.61753988,5.1983798,5.66667545,5.1655483Q5.71581101,5.1327171,5.7575974500000004,5.0909306999999995Q5.7993837599999996,5.0491443,5.83221513,5.0000086Q5.8650465,4.9508729,5.8876611,4.8962765Q5.9102757,4.84168,5.92180455,4.783721Q5.9333334,4.7257614,5.9333334,4.6666667L5.9333334,2Q5.9333334,1.940905157,5.92180455,1.88294581Q5.9102757,1.82498646,5.88766104,1.77038994Q5.86504644,1.71579343,5.83221507,1.6666578699999999Q5.7993837599999996,1.6175223,5.7575974500000004,1.57573593Q5.71581101,1.53394958,5.66667545,1.50111824Q5.61753988,1.46828693,5.5629434,1.4456723299999998Q5.50834692,1.4230576799999999,5.45038754,1.41152883Q5.39242819,1.39999998,5.33333334,1.39999998Q5.2742385,1.39999998,5.21627915,1.41152883Q5.15831979,1.4230576799999999,5.10372327,1.4456723299999998Q5.049126755,1.46828693,4.9999911878258,1.50111827Q4.950855624,1.53394958,4.909069255,1.57573593Q4.8672829,1.6175223,4.83445156,1.6666578699999999Q4.80162022,1.71579343,4.77900562,1.77038994Q4.756391,1.82498646,4.74486217,1.88294581Q4.73333335,1.940905157,4.73333332,2Z" fill-rule="evenodd" fill="#191C1E" fill-opacity="1"/><path d="M2.6666667461395264,7.9333334L13.333333746139527,7.9333334Q13.392427746139527,7.9333334,13.450386746139527,7.92180455Q13.508346746139527,7.9102757,13.562942746139527,7.88766104Q13.617538746139527,7.86504644,13.666674746139526,7.83221507Q13.715810746139526,7.7993837599999996,13.757597746139526,7.7575974500000004Q13.799383746139526,7.71581101,13.832214746139526,7.66667545Q13.865046746139527,7.61753988,13.887660746139526,7.5629434Q13.910274746139526,7.50834692,13.921804746139527,7.45038754Q13.933332746139527,7.39242819,13.933333746139526,7.33333334Q13.933332746139527,7.2742385,13.921803746139526,7.21627915Q13.910274746139526,7.15831979,13.887659746139526,7.10372327Q13.865045746139526,7.049126755,13.832214746139526,6.9999911878258Q13.799383746139526,6.950855624,13.757597746139526,6.909069255Q13.715810746139526,6.8672829,13.666674746139526,6.83445156Q13.617538746139527,6.80162022,13.562942746139527,6.77900562Q13.508346746139527,6.756391,13.450386746139527,6.74486217Q13.392427746139527,6.73333335,13.333333746139527,6.73333332L2.6666667461395264,6.73333332Q2.6075719031395264,6.73333335,2.549612556139526,6.74486217Q2.4916532061395262,6.756391,2.437056686139526,6.77900562Q2.3824601761395265,6.80162022,2.3333246161395262,6.83445156Q2.2841890461395264,6.8672829,2.2424026761395264,6.909069255Q2.200616326139526,6.950855624,2.167784986139526,6.9999911859632Q2.1349536761395265,7.049126752,2.112339076139526,7.10372327Q2.0897244261395262,7.15831979,2.0781955761395263,7.21627913Q2.0666667261395264,7.2742385,2.0666667261395264,7.33333334Q2.0666667261395264,7.39242819,2.0781955761395263,7.45038754Q2.0897244261395262,7.50834692,2.112339076139526,7.5629434Q2.1349536761395265,7.61753988,2.1677850161395265,7.66667545Q2.200616326139526,7.71581101,2.2424026761395264,7.7575974500000004Q2.2841890461395264,7.7993837599999996,2.3333246161395262,7.83221513Q2.3824601761395265,7.8650465,2.437056686139526,7.8876611Q2.4916532061395262,7.9102757,2.549612556139526,7.92180455Q2.6075719031395264,7.9333334,2.6666667461395264,7.9333334Z" fill-rule="evenodd" fill="#191C1E" fill-opacity="1"/><path d="M4.73333332,9.333333015441895L4.73333332,11.999999715441895Q4.73333335,12.059094415441894,4.74486217,12.117053715441894Q4.756391,12.175013015441895,4.77900562,12.229609515441894Q4.80162022,12.284205915441895,4.83445156,12.333341615441896Q4.8672829,12.382477315441895,4.909069255,12.424263715441894Q4.950855624,12.466050115441895,4.9999911859632,12.498881315441896Q5.049126752,12.531712815441894,5.10372327,12.554327215441894Q5.15831979,12.576942015441894,5.21627913,12.588470915441894Q5.2742385,12.599999915441895,5.33333334,12.599999915441895Q5.39242819,12.599999915441895,5.45038754,12.588470915441894Q5.50834692,12.576942015441894,5.5629434,12.554327215441894Q5.61753988,12.531712815441894,5.66667545,12.498881315441896Q5.71581101,12.466050115441895,5.7575974500000004,12.424263715441894Q5.7993837599999996,12.382477315441895,5.83221513,12.333341615441896Q5.8650465,12.284205915441895,5.8876611,12.229609515441894Q5.9102757,12.175013015441895,5.92180455,12.117054015441894Q5.9333334,12.059094415441894,5.9333334,11.999999715441895L5.9333334,9.333333015441895Q5.9333334,9.274238172441894,5.92180455,9.216278825441895Q5.9102757,9.158319475441894,5.88766104,9.103722955441894Q5.86504644,9.049126445441894,5.83221507,8.999990885441894Q5.7993837599999996,8.950855315441894,5.7575974500000004,8.909068945441895Q5.71581101,8.867282595441894,5.66667545,8.834451255441895Q5.61753988,8.801619945441894,5.5629434,8.779005345441895Q5.50834692,8.756390695441894,5.45038754,8.744861845441894Q5.39242819,8.733332995441895,5.33333334,8.733332995441895Q5.2742385,8.733332995441895,5.21627915,8.744861845441894Q5.15831979,8.756390695441894,5.10372327,8.779005345441895Q5.049126755,8.801619945441894,4.9999911878258,8.834451285441894Q4.950855624,8.867282595441894,4.909069255,8.909068945441895Q4.8672829,8.950855315441894,4.83445156,8.999990885441894Q4.80162022,9.049126445441894,4.77900562,9.103722955441894Q4.756391,9.158319475441894,4.74486217,9.216278825441895Q4.73333335,9.274238172441894,4.73333332,9.333333015441895Z" fill-rule="evenodd" fill="#191C1E" fill-opacity="1"/><path d="M7.399999827720947,9.333333015441895L7.399999827720947,11.999999715441895Q7.399999857720947,12.059094415441894,7.4115286777209475,12.117053715441894Q7.423057507720947,12.175013015441895,7.445672127720948,12.229609515441894Q7.4682867277209475,12.284205915441895,7.501118067720947,12.333341615441896Q7.5339494077209475,12.382477315441895,7.575735762720948,12.424263715441894Q7.617522131720947,12.466050115441895,7.666657693684147,12.498881315441896Q7.7157932597209475,12.531712815441894,7.770389777720947,12.554327215441894Q7.8249862977209474,12.576942015441894,7.8829456377209475,12.588470915441894Q7.940905007720947,12.599999915441895,7.9999998477209475,12.599999915441895Q8.059094697720948,12.599999915441895,8.117054047720947,12.588470915441894Q8.175013427720947,12.576942015441894,8.229609907720947,12.554327215441894Q8.284206387720948,12.531712815441894,8.333341957720947,12.498881315441896Q8.382477517720947,12.466050115441895,8.424263957720948,12.424263715441894Q8.466050267720947,12.382477315441895,8.498881637720947,12.333341615441896Q8.531713007720947,12.284205915441895,8.554327607720948,12.229609515441894Q8.576942207720947,12.175013015441895,8.588471057720946,12.117054015441894Q8.599999907720948,12.059094415441894,8.599999907720948,11.999999715441895L8.599999907720948,9.333333015441895Q8.599999907720948,9.274238172441894,8.588471057720946,9.216278825441895Q8.576942207720947,9.158319475441894,8.554327547720947,9.103722955441894Q8.531712947720948,9.049126445441894,8.498881577720947,8.999990885441894Q8.466050267720947,8.950855315441894,8.424263957720948,8.909068945441895Q8.382477517720947,8.867282595441894,8.333341957720947,8.834451255441895Q8.284206387720948,8.801619945441894,8.229609907720947,8.779005345441895Q8.175013427720947,8.756390695441894,8.117054047720947,8.744861845441894Q8.059094697720948,8.733332995441895,7.9999998477209475,8.733332995441895Q7.940905007720947,8.733332995441895,7.882945657720947,8.744861845441894Q7.8249862977209474,8.756390695441894,7.770389777720947,8.779005345441895Q7.715793262720947,8.801619945441894,7.666657695546747,8.834451285441894Q7.617522131720947,8.867282595441894,7.575735762720948,8.909068945441895Q7.5339494077209475,8.950855315441894,7.501118067720947,8.999990885441894Q7.4682867277209475,9.049126445441894,7.445672127720948,9.103722955441894Q7.423057507720947,9.158319475441894,7.4115286777209475,9.216278825441895Q7.399999857720947,9.274238172441894,7.399999827720947,9.333333015441895Z" fill-rule="evenodd" fill="#191C1E" fill-opacity="1"/><path d="M10.066666335441894,9.333333015441895L10.066666335441894,11.999999715441895Q10.066666365441895,12.059094415441894,10.078195185441894,12.117053715441894Q10.089724015441895,12.175013015441895,10.112338635441894,12.229609515441894Q10.134953235441895,12.284205915441895,10.167784575441894,12.333341615441896Q10.200615915441894,12.382477315441895,10.242402270441895,12.424263715441894Q10.284188639441895,12.466050115441895,10.333324201405095,12.498881315441896Q10.382459767441894,12.531712815441894,10.437056285441894,12.554327215441894Q10.491652805441895,12.576942015441894,10.549612145441895,12.588470915441894Q10.607571515441894,12.599999915441895,10.666666355441894,12.599999915441895Q10.725761205441895,12.599999915441895,10.783720555441894,12.588470915441894Q10.841679935441894,12.576942015441894,10.896276415441895,12.554327215441894Q10.950872895441895,12.531712815441894,11.000008465441894,12.498881315441896Q11.049144025441894,12.466050115441895,11.090930465441895,12.424263715441894Q11.132716775441894,12.382477315441895,11.165548145441894,12.333341615441896Q11.198379515441895,12.284205915441895,11.220994115441895,12.229609515441894Q11.243608715441894,12.175013015441895,11.255137565441894,12.117054015441894Q11.266666415441895,12.059094415441894,11.266666415441895,11.999999715441895L11.266666415441895,9.333333015441895Q11.266666415441895,9.274238172441894,11.255137565441894,9.216278825441895Q11.243608715441894,9.158319475441894,11.220994055441894,9.103722955441894Q11.198379455441895,9.049126445441894,11.165548085441895,8.999990885441894Q11.132716775441894,8.950855315441894,11.090930465441895,8.909068945441895Q11.049144025441894,8.867282595441894,11.000008465441894,8.834451255441895Q10.950872895441895,8.801619945441894,10.896276415441895,8.779005345441895Q10.841679935441894,8.756390695441894,10.783720555441894,8.744861845441894Q10.725761205441895,8.733332995441895,10.666666355441894,8.733332995441895Q10.607571515441894,8.733332995441895,10.549612165441895,8.744861845441894Q10.491652805441895,8.756390695441894,10.437056285441894,8.779005345441895Q10.382459770441894,8.801619945441894,10.333324203267695,8.834451285441894Q10.284188639441895,8.867282595441894,10.242402270441895,8.909068945441895Q10.200615915441894,8.950855315441894,10.167784575441894,8.999990885441894Q10.134953235441895,9.049126445441894,10.112338635441894,9.103722955441894Q10.089724015441895,9.158319475441894,10.078195185441894,9.216278825441895Q10.066666365441895,9.274238172441894,10.066666335441894,9.333333015441895Z" fill-rule="evenodd" fill="#191C1E" fill-opacity="1"/></g></svg>