<svg xmlns="http://www.w3.org/2000/svg" xmlns:xlink="http://www.w3.org/1999/xlink" fill="none" version="1.1" width="16" height="16" viewBox="0 0 16 16"><path d="M0.39999998000000003,11.999999L0.39999998000000003,2Q0.39999998000000003,1.940905157,0.41152882999999996,1.88294581Q0.42305768,1.82498646,0.44567232999999995,1.77038994Q0.46828693,1.71579343,0.50111827,1.6666578699999999Q0.53394958,1.6175223,0.57573593,1.57573593Q0.6175223000000001,1.53394958,0.66665787,1.50111824Q0.71579343,1.46828693,0.77038994,1.4456723299999998Q0.82498646,1.4230576799999999,0.88294581,1.41152883Q0.940905157,1.39999998,1,1.39999998L15.000001,1.39999998Q15.059095,1.39999998,15.117054,1.41152883Q15.175013,1.4230576799999999,15.229609,1.4456723299999998Q15.284204,1.46828693,15.33334,1.50111827Q15.382476,1.53394958,15.424263,1.57573593Q15.466049,1.6175223,15.49888,1.6666578699999999Q15.531712,1.71579343,15.554327,1.77038994Q15.576941,1.82498646,15.58847,1.88294581Q15.599999,1.940905157,15.6,2L15.6,11.999999Q15.599999,12.059093,15.58847,12.117053Q15.576941,12.175013,15.554327,12.229609Q15.531712,12.284204,15.49888,12.33334Q15.466049,12.382476,15.424264,12.424263Q15.382477,12.466049,15.333342,12.49888Q15.284204,12.531712,15.229609,12.554326Q15.175013,12.576941,15.117054,12.58847Q15.059095,12.599998,15.000001,12.599999L1,12.599999Q0.940905157,12.599998,0.88294581,12.58847Q0.82498646,12.576941,0.77038994,12.554326Q0.71579343,12.531712,0.66665787,12.49888Q0.6175223000000001,12.466049,0.57573593,12.424263Q0.53394958,12.382476,0.50111824,12.333341Q0.46828693,12.284204,0.44567232999999995,12.229609Q0.42305768,12.175013,0.41152882999999996,12.117053Q0.39999998000000003,12.059093,0.39999998000000003,11.999999ZM1.60000002,2.60000002L1.60000002,11.3999996L14.4,11.3999996L14.4,2.60000002L1.60000002,2.60000002Z" fill="#FFFFFF" fill-opacity="1"/><path d="M4.6000000199999995,13.60009765625L11.4000001,13.60009765625C11.7313709,13.60009765625,12,13.86872678625,12,14.20009767625C12,14.53146856625,11.7313709,14.80009765625,11.4000001,14.80009765625L4.5999999,14.80009765625C4.26862913,14.80009765625,4,14.53146856625,4,14.20009767625C4,13.86872678625,4.26862913,13.60009765625,4.6000000199999995,13.60009765625" fill-rule="evenodd" fill="#FFFFFF" fill-opacity="1"/><path d="M4.0316406449999995,4.3642578125L10.411778425,4.3642578125C10.743149725,4.3642578125,11.011778825,4.6328869425,11.011778825,4.9642578324999995C11.011778825,5.2956287225,10.743149725,5.5642578125,10.411778925,5.5642578125L4.031640825,5.5642578125C3.700269755,5.5642578125,3.431640625,5.2956287225,3.431640625,4.9642578324999995C3.431640625,4.6328869425,3.700269755,4.3642578125,4.0316406449999995,4.3642578125" fill-rule="evenodd" fill="#FFFFFF" fill-opacity="1"/><path d="M4.0316406449999995,6.864257812500069L7.538403525,6.864257812500476C7.869774325,6.864257812500514,8.138403425,7.1328869425,8.138403425,7.4642578324999995C8.138403425,7.7956287225,7.869774325,8.0642578125,7.538403525,8.0642578125L4.0316406449999995,8.0642578125C3.700269755,8.0642578125,3.4316406250005684,7.7956287225,3.4316406250005684,7.4642578324999995C3.4316406250005684,7.1328869425,3.700269755,6.864257812500031,4.0316406449999995,6.864257812500069" fill-rule="evenodd" fill="#FFFFFF" fill-opacity="1"/><path d="M9.8740234375,9.834960937500435L13.8740234375,9.834960937500401L13.8740234375,11.0349609375L9.8740234375,11.0349609375L8.874023437499432,10.4349609575L9.8740234375,9.834960937500435Z" fill-rule="evenodd" fill="#FFFFFF" fill-opacity="1" transform="matrix(0.7071067690849304,-0.7071067690849304,0.7071067690849304,0.7071067690849304,-4.355226056766696,9.15547552658245)"/></svg>