<svg xmlns="http://www.w3.org/2000/svg" xmlns:xlink="http://www.w3.org/1999/xlink" fill="none" version="1.1" width="16" height="16" viewBox="0 0 16 16"><defs><clipPath id="master_svg0_28_04463"><rect x="-0.699999988079071" y="-0.699999988079071" width="17.399999976158142" height="17.399999976158142" rx="0"/></clipPath></defs><g clip-path="url(#master_svg0_28_04463)"><path d="M2.6999999900000002,3.6999999900000002L5,3.6999999900000002L5,2.3000000099999998L2,2.3000000099999998Q1.931056023,2.30000007,1.86343679,2.31345034Q1.79581757,2.3269006599999997,1.73212165,2.35328436Q1.66842571,2.37966812,1.61110088,2.41797137Q1.5537760299999999,2.45627457,1.50502527,2.50502527Q1.4562745700000002,2.55377603,1.41797137,2.61110088Q1.37966812,2.66842571,1.35328442,2.73212165Q1.32690072,2.79581757,1.3134503400000002,2.86343679Q1.3000000699999998,2.931056023,1.30000001,3L1.30000001,6L2.6999999900000002,6L2.6999999900000002,3.6999999900000002Z" fill-rule="evenodd" fill="#191C1E" fill-opacity="1"/><g transform="matrix(0,1,-1,0,15,-9)"><path d="M12.69999999,3.6999999900000002L15,3.6999999900000002L15,2.3000000099999998L12,2.3000000099999998Q11.931056023,2.30000007,11.86343679,2.31345034Q11.79581757,2.3269006599999997,11.73212165,2.35328436Q11.66842571,2.37966812,11.61110088,2.41797137Q11.55377603,2.45627457,11.50502527,2.50502527Q11.45627457,2.55377603,11.41797137,2.61110088Q11.37966812,2.66842571,11.35328442,2.73212165Q11.32690072,2.79581757,11.31345034,2.86343679Q11.30000007,2.931056023,11.30000001,3L11.30000001,6L12.69999999,6L12.69999999,3.6999999900000002Z" fill-rule="evenodd" fill="#191C1E" fill-opacity="1"/></g><g transform="matrix(1,0,0,-1,0,26)"><path d="M2.6999999900000002,13.69999999L5,13.69999999L5,12.30000001L2,12.30000001Q1.931056023,12.30000007,1.86343679,12.31345034Q1.79581757,12.32690066,1.73212165,12.35328436Q1.66842571,12.37966812,1.61110088,12.41797137Q1.5537760299999999,12.45627457,1.50502527,12.50502527Q1.4562745700000002,12.55377603,1.41797137,12.61110088Q1.37966812,12.66842571,1.35328442,12.73212165Q1.32690072,12.79581757,1.3134503400000002,12.86343679Q1.3000000699999998,12.931056023,1.30000001,13L1.30000001,16L2.6999999900000002,16L2.6999999900000002,13.69999999Z" fill-rule="evenodd" fill="#191C1E" fill-opacity="1"/></g><g transform="matrix(0,-1,-1,0,25,25)"><path d="M12.69999999,13.69999999L15,13.69999999L15,12.30000001L12,12.30000001Q11.931056023,12.30000007,11.86343679,12.31345034Q11.79581757,12.32690066,11.73212165,12.35328436Q11.66842571,12.37966812,11.61110088,12.41797137Q11.55377603,12.45627457,11.50502527,12.50502527Q11.45627457,12.55377603,11.41797137,12.61110088Q11.37966812,12.66842571,11.35328442,12.73212165Q11.32690072,12.79581757,11.31345034,12.86343679Q11.30000007,12.931056023,11.30000001,13L11.30000001,16L12.69999999,16L12.69999999,13.69999999Z" fill-rule="evenodd" fill="#191C1E" fill-opacity="1"/></g><g transform="matrix(0,1,1,0,-1,1)"><path d="M12.69999999,13.69999999L15,13.69999999L15,12.30000001L12,12.30000001Q11.931056023,12.30000007,11.86343679,12.31345034Q11.79581757,12.32690066,11.73212165,12.35328436Q11.66842571,12.37966812,11.61110088,12.41797137Q11.55377603,12.45627457,11.50502527,12.50502527Q11.45627457,12.55377603,11.41797137,12.61110088Q11.37966812,12.66842571,11.35328442,12.73212165Q11.32690072,12.79581757,11.31345034,12.86343679Q11.30000007,12.931056023,11.30000001,13L11.30000001,16L12.69999999,16L12.69999999,13.69999999Z" fill-rule="evenodd" fill="#191C1E" fill-opacity="1"/></g></g></svg>