<svg xmlns="http://www.w3.org/2000/svg" xmlns:xlink="http://www.w3.org/1999/xlink" fill="none" version="1.1" width="16" height="16" viewBox="0 0 16 16"><defs><clipPath id="master_svg0_49_11556"><rect x="-0.699999988079071" y="-0.699999988079071" width="17.399999976158142" height="17.399999976158142" rx="0"/></clipPath></defs><g clip-path="url(#master_svg0_49_11556)"><g transform="matrix(0.7071067690849304,-0.7071067690849304,0.7071067690849304,0.7071067690849304,-4.783198368557805,1.4440825378437694)"><path d="M0.32105416,7.465363977558594Q-1.3484371899999998,9.134855697558594,-1.3484371899999998,11.495872497558594Q-1.34843749,13.856889697558593,0.32105397999999996,15.526381497558594Q1.9905457000000002,17.195873497558594,4.3515625,17.195873497558594Q6.7125797,17.195873497558594,8.3820715,15.526381497558594Q10.0515635,13.856889697558593,10.0515635,11.495872497558594Q10.0515635,9.134854997558595,8.3820715,7.465364157558594Q6.7125797,5.7958728075585935,4.3515625,5.7958728075585935Q1.990545,5.7958725075585935,0.32105416,7.465363977558594ZM1.3110033,14.536432297558594Q0.051562490000000016,13.276990897558594,0.051562490000000016,11.495872497558594Q0.05156273,9.714754597558594,1.3110038,8.455313297558593Q2.5704446,7.195872487558594,4.3515625,7.195872787558594Q6.1326804,7.195872727558593,7.3921223000000005,8.455313797558594Q8.6515627,9.714754597558594,8.6515627,11.495872497558594Q8.6515627,13.276990897558594,7.3921223000000005,14.536432297558594Q6.1326809,15.795872697558593,4.3515625,15.795872697558593Q2.5704443,15.795872697558593,1.3110033,14.536432297558594Z" fill-rule="evenodd" fill="#191C1E" fill-opacity="1"/></g><g transform="matrix(0.7071067690849304,-0.7071067690849304,0.7071067690849304,0.7071067690849304,-4.529890871603584,9.832964192264171)"><path d="M9.4044921975,10.384544372558594L9.4044921975,16.384544372558594Q9.4044922175,16.453488372558596,9.4179425275,16.521107172558594Q9.4313928175,16.588726472558594,9.4577765475,16.652422472558595Q9.4841602575,16.716118372558594,9.5224634855,16.773443172558594Q9.5607667005,16.830767672558594,9.6095174551,16.879518472558594Q9.6582682055,16.928269372558596,9.7155930275,16.966572272558594Q9.7729178375,17.00487517255859,9.8366137775,17.031259072558594Q9.9003097075,17.057642972558593,9.9679289475,17.071093072558593Q10.0355482075,17.084543672558596,10.1044921875,17.084544172558594Q10.1734361675,17.084543672558596,10.2410553675,17.071093072558593Q10.3086745775,17.057642972558593,10.3723704775,17.031259072558594Q10.4360664475,17.00487517255859,10.4933912775,16.966572772558592Q10.5507161575,16.928269372558596,10.5994669175,16.879518472558594Q10.6482176875,16.830767672558594,10.6865207875,16.773443172558594Q10.7248240875,16.716118372558594,10.7512077875,16.652422472558595Q10.7775914875,16.588726472558594,10.7910418875,16.521107172558594Q10.8044921875,16.453488372558596,10.8044921875,16.384544372558594L10.8044921875,10.384544372558594Q10.8044921875,10.315600395558594,10.7910418875,10.247981162558593Q10.7775914875,10.180361942558594,10.751207687499999,10.116666022558594Q10.7248239875,10.052970082558593,10.6865207875,9.995645252558594Q10.6482176875,9.938320402558594,10.5994669175,9.889569642558595Q10.5507161575,9.840818942558593,10.4933912775,9.802515742558594Q10.4360665075,9.764212492558594,10.3723705375,9.737828792558593Q10.3086745775,9.711445092558593,10.2410553675,9.697994712558593Q10.1734361675,9.684544442558593,10.1044921875,9.684544382558594Q10.0355482075,9.684544442558593,9.9679289475,9.697994712558593Q9.9003097075,9.711445032558593,9.8366137775,9.737828732558594Q9.7729178375,9.764212492558594,9.7155930275,9.802515742558594Q9.6582682025,9.840818942558593,9.6095174514,9.889569642558595Q9.5607666965,9.938320402558594,9.5224634785,9.995645252558594Q9.4841602575,10.052970082558593,9.4577765475,10.116666022558594Q9.4313928175,10.180361942558594,9.4179425275,10.247981162558593Q9.4044922175,10.315600395558594,9.4044921975,10.384544372558594Z" fill-rule="evenodd" fill="#191C1E" fill-opacity="1"/></g><path d="M5.7228515725,4.495872497558594L5.7228515725,8.495872497558594Q5.7228515925,8.564816497558594,5.7363019025,8.632435297558594Q5.7497521925,8.700054597558594,5.7761359225,8.763750597558595Q5.8025196325,8.827446497558594,5.8408228605,8.884771297558594Q5.8791260755,8.942095797558594,5.9278768301,8.990846597558594Q5.9766275805,9.039597497558594,6.0339524025,9.077900897558592Q6.0912772125,9.116203797558594,6.1549731525,9.142587697558593Q6.2186690825,9.168971497558594,6.2862883225,9.182421697558594Q6.3539075825,9.195872297558594,6.4228515625,9.195872297558594Q6.4917955425,9.195872297558594,6.5594147425,9.182421697558594Q6.6270339525,9.168971497558594,6.6907298525,9.142587697558593Q6.7544258225,9.116203797558594,6.8117506525,9.077900897558592Q6.8690755325,9.039597497558594,6.9178262925,8.990846597558594Q6.9665770625,8.942095797558594,7.0048801625,8.884771297558594Q7.0431834625,8.827446497558594,7.0695671625,8.763750597558595Q7.0959508625000005,8.700054597558594,7.1094012625000005,8.632435797558593Q7.1228515625,8.564816497558594,7.1228515625,8.495872497558594L7.1228515625,4.495872497558594Q7.1228515625,4.426928520558594,7.1094012625000005,4.3593092875585935Q7.0959508625000005,4.291690067558593,7.0695670625,4.227994147558594Q7.0431833625,4.164298207558594,7.0048801625,4.106973377558594Q6.9665770625,4.049648527558594,6.9178262925,4.000897767558594Q6.8690755325,3.952147067558594,6.8117506525,3.913843867558594Q6.7544258825,3.8755406175585936,6.6907299125,3.849156917558594Q6.6270339525,3.822773217558594,6.5594147425,3.809322837558594Q6.4917955425,3.7958725675585936,6.4228515625,3.7958725075585935Q6.3539075825,3.7958725675585936,6.2862883225,3.809322837558594Q6.2186690825,3.8227731575585935,6.1549731525,3.8491568575585937Q6.0912772125,3.8755406175585936,6.0339524025,3.913843867558594Q5.9766275775,3.952147067558594,5.9278768264,4.000897767558594Q5.8791260715,4.049648527558594,5.8408228535,4.106973377558594Q5.8025196325,4.164298207558594,5.7761359225,4.227994147558594Q5.7497521925,4.291690067558593,5.7363019025,4.3593092875585935Q5.7228515925,4.426928520558594,5.7228515725,4.495872497558594Z" fill-rule="evenodd" fill="#191C1E" fill-opacity="1"/><path d="M8.4228515625,5.7958725075585935L4.4228515625,5.7958725075585935Q4.3539075855,5.795872527558593,4.2862883525,5.809322837558594Q4.2186691325,5.822773127558594,4.1549732125,5.849156857558594Q4.0912772725,5.875540567558594,4.0339524425,5.913843795558594Q3.9766275925,5.952147010558594,3.9278768325,6.0008977651585935Q3.8791261325,6.0496485155585935,3.8408229325,6.1069733375585935Q3.8025196825,6.164298147558593,3.7761359825,6.227994087558594Q3.7497522825000003,6.291690017558594,3.7363019025,6.359309257558594Q3.7228516325,6.4269285175585935,3.7228515724999998,6.495872497558594Q3.7228516325,6.564816477558594,3.7363019025,6.632435677558593Q3.7497522224999997,6.7000548875585935,3.7761359225,6.763750787558593Q3.8025196825,6.827446757558594,3.8408229325,6.8847715875585935Q3.8791261325,6.942096467558594,3.9278768325,6.990847227558594Q3.9766275925,7.039597997558594,4.0339524425,7.077901097558594Q4.0912772725,7.116204397558594,4.1549732125,7.142588097558594Q4.2186691325,7.168971797558594,4.2862883525,7.182422197558594Q4.3539075855,7.195872497558594,4.4228515625,7.195872497558594L8.4228515625,7.195872497558594Q8.4917955625,7.195872497558594,8.5594143625,7.182422197558594Q8.6270336625,7.168971797558594,8.6907296625,7.142587997558594Q8.7544255625,7.1162042975585935,8.8117503625,7.077901097558594Q8.8690748625,7.039597997558594,8.9178256625,6.990847227558594Q8.9665765625,6.942096467558594,9.004879962499999,6.8847715875585935Q9.0431828625,6.827446817558593,9.0695667625,6.763750847558594Q9.0959505625,6.7000548875585935,9.1094007625,6.632435677558593Q9.1228513625,6.564816477558594,9.1228513625,6.495872497558594Q9.1228513625,6.4269285175585935,9.1094007625,6.359309257558594Q9.0959505625,6.291690017558594,9.0695667625,6.227994087558594Q9.0431828625,6.164298147558593,9.004879962499999,6.1069733375585935Q8.9665765625,6.049648512558594,8.9178256625,6.000897761458594Q8.8690748625,5.952147006558594,8.8117503625,5.9138437885585935Q8.7544255625,5.875540567558594,8.6907296625,5.849156857558594Q8.6270336625,5.822773127558594,8.559414862499999,5.809322837558594Q8.4917955625,5.795872527558593,8.4228515625,5.7958725075585935Z" fill-rule="evenodd" fill="#191C1E" fill-opacity="1"/></g></svg>