<svg xmlns="http://www.w3.org/2000/svg" xmlns:xlink="http://www.w3.org/1999/xlink" fill="none" version="1.1" width="16" height="16" viewBox="0 0 16 16"><defs><clipPath id="master_svg0_49_11571"><rect x="-0.699999988079071" y="-0.699999988079071" width="17.399999976158142" height="17.399999976158142" rx="0"/></clipPath></defs><g clip-path="url(#master_svg0_49_11571)"><g transform="matrix(0.7071067690849304,-0.7071067690849304,0.7071067690849304,0.7071067690849304,-4.783198368557805,1.4440825378437694)"><path d="M0.32105416,7.465363977558594Q-1.3484371899999998,9.134855697558594,-1.3484371899999998,11.495872497558594Q-1.34843749,13.856889697558593,0.32105397999999996,15.526381497558594Q1.9905457000000002,17.195873497558594,4.3515625,17.195873497558594Q6.7125797,17.195873497558594,8.3820715,15.526381497558594Q10.0515635,13.856889697558593,10.0515635,11.495872497558594Q10.0515635,9.134854997558595,8.3820715,7.465364157558594Q6.7125797,5.7958728075585935,4.3515625,5.7958728075585935Q1.990545,5.7958725075585935,0.32105416,7.465363977558594ZM1.3110033,14.536432297558594Q0.051562490000000016,13.276990897558594,0.051562490000000016,11.495872497558594Q0.05156273,9.714754597558594,1.3110038,8.455313297558593Q2.5704446,7.195872487558594,4.3515625,7.195872787558594Q6.1326804,7.195872727558593,7.3921223000000005,8.455313797558594Q8.6515627,9.714754597558594,8.6515627,11.495872497558594Q8.6515627,13.276990897558594,7.3921223000000005,14.536432297558594Q6.1326809,15.795872697558593,4.3515625,15.795872697558593Q2.5704443,15.795872697558593,1.3110033,14.536432297558594Z" fill-rule="evenodd" fill="#191C1E" fill-opacity="1"/></g><g transform="matrix(0.7071067690849304,-0.7071067690849304,0.7071067690849304,0.7071067690849304,-4.529890871603584,9.832964192264171)"><path d="M9.4044921975,10.384544372558594L9.4044921975,16.384544372558594Q9.4044922175,16.453488372558596,9.4179425275,16.521107172558594Q9.4313928175,16.588726472558594,9.4577765475,16.652422472558595Q9.4841602575,16.716118372558594,9.5224634855,16.773443172558594Q9.5607667005,16.830767672558594,9.6095174551,16.879518472558594Q9.6582682055,16.928269372558596,9.7155930275,16.966572272558594Q9.7729178375,17.00487517255859,9.8366137775,17.031259072558594Q9.9003097075,17.057642972558593,9.9679289475,17.071093072558593Q10.0355482075,17.084543672558596,10.1044921875,17.084544172558594Q10.1734361675,17.084543672558596,10.2410553675,17.071093072558593Q10.3086745775,17.057642972558593,10.3723704775,17.031259072558594Q10.4360664475,17.00487517255859,10.4933912775,16.966572772558592Q10.5507161575,16.928269372558596,10.5994669175,16.879518472558594Q10.6482176875,16.830767672558594,10.6865207875,16.773443172558594Q10.7248240875,16.716118372558594,10.7512077875,16.652422472558595Q10.7775914875,16.588726472558594,10.7910418875,16.521107172558594Q10.8044921875,16.453488372558596,10.8044921875,16.384544372558594L10.8044921875,10.384544372558594Q10.8044921875,10.315600395558594,10.7910418875,10.247981162558593Q10.7775914875,10.180361942558594,10.751207687499999,10.116666022558594Q10.7248239875,10.052970082558593,10.6865207875,9.995645252558594Q10.6482176875,9.938320402558594,10.5994669175,9.889569642558595Q10.5507161575,9.840818942558593,10.4933912775,9.802515742558594Q10.4360665075,9.764212492558594,10.3723705375,9.737828792558593Q10.3086745775,9.711445092558593,10.2410553675,9.697994712558593Q10.1734361675,9.684544442558593,10.1044921875,9.684544382558594Q10.0355482075,9.684544442558593,9.9679289475,9.697994712558593Q9.9003097075,9.711445032558593,9.8366137775,9.737828732558594Q9.7729178375,9.764212492558594,9.7155930275,9.802515742558594Q9.6582682025,9.840818942558593,9.6095174514,9.889569642558595Q9.5607666965,9.938320402558594,9.5224634785,9.995645252558594Q9.4841602575,10.052970082558593,9.4577765475,10.116666022558594Q9.4313928175,10.180361942558594,9.4179425275,10.247981162558593Q9.4044922175,10.315600395558594,9.4044921975,10.384544372558594Z" fill-rule="evenodd" fill="#191C1E" fill-opacity="1"/></g><path d="M8.4228515625,5.795872507559048L4.4228515625,5.795872507559048Q4.3539075855,5.795872527559048,4.2862883525,5.809322837559049Q4.2186691325,5.822773127559048,4.1549732125,5.8491568575590485Q4.0912772725,5.875540567559049,4.0339524425,5.913843795559049Q3.9766275925,5.952147010559049,3.9278768325,6.000897765159048Q3.8791261325,6.049648515559048,3.8408229325,6.106973337559048Q3.8025196825,6.164298147559048,3.7761359825,6.227994087559049Q3.7497522825000003,6.291690017559048,3.7363019025,6.359309257559048Q3.7228516325,6.426928517559048,3.7228515724999998,6.4958724975590485Q3.7228516325,6.564816477559049,3.7363019025,6.632435677559048Q3.7497522224999997,6.700054887559048,3.7761359225,6.763750787559048Q3.8025196825,6.8274467575590485,3.8408229325,6.884771587559048Q3.8791261325,6.942096467559049,3.9278768325,6.9908472275590485Q3.9766275925,7.039597997559048,4.0339524425,7.077901097559049Q4.0912772725,7.1162043975590485,4.1549732125,7.142588097559049Q4.2186691325,7.168971797559049,4.2862883525,7.182422197559049Q4.3539075855,7.195872497559049,4.4228515625,7.195872497559049L8.4228515625,7.195872497559049Q8.4917955625,7.195872497559049,8.5594143625,7.182422197559049Q8.6270336625,7.168971797559049,8.6907296625,7.1425879975590485Q8.7544255625,7.116204297559048,8.8117503625,7.077901097559049Q8.8690748625,7.039597997559048,8.9178256625,6.9908472275590485Q8.9665765625,6.942096467559049,9.004879962499999,6.884771587559048Q9.0431828625,6.827446817559048,9.0695667625,6.763750847559049Q9.0959505625,6.700054887559048,9.1094007625,6.632435677559048Q9.1228513625,6.564816477559049,9.1228513625,6.4958724975590485Q9.1228513625,6.426928517559048,9.1094007625,6.359309257559048Q9.0959505625,6.291690017559048,9.0695667625,6.227994087559049Q9.0431828625,6.164298147559048,9.004879962499999,6.106973337559048Q8.9665765625,6.049648512559049,8.9178256625,6.000897761459049Q8.8690748625,5.9521470065590485,8.8117503625,5.913843788559048Q8.7544255625,5.875540567559049,8.6907296625,5.8491568575590485Q8.6270336625,5.822773127559048,8.559414862499999,5.809322837559049Q8.4917955625,5.795872527559048,8.4228515625,5.795872507559048Z" fill-rule="evenodd" fill="#191C1E" fill-opacity="1"/></g></svg>