<svg xmlns="http://www.w3.org/2000/svg" xmlns:xlink="http://www.w3.org/1999/xlink" fill="none" version="1.1" width="28" height="28" viewBox="0 0 28 28"><defs><clipPath id="master_svg0_0_3249"><rect x="-0.699999988079071" y="-0.699999988079071" width="29.399999976158142" height="29.399999976158142" rx="0"/></clipPath><mask id="master_svg1_0_3250" style="mask-type:luminance" maskUnits="userSpaceOnUse" x="0" y="0" width="28" height="28"><path d="M0 8C4.90527396329193e-16 3.5817220013536524 3.5817220013536533 0 8 0L20 0C24.418277998646346 0 28 3.5817220013536533 28 8L28 20C28 24.418277998646346 24.418277998646346 28 20 28L8 28C3.5817220013536533 28 0 24.418277998646346 0 20Z" fill="#FFFFFF" fill-opacity="1"/></mask></defs><g clip-path="url(#master_svg0_0_3249)" mask="url(#master_svg1_0_3250)"><path d="M0 8C4.90527396329193e-16 3.5817220013536524 3.5817220013536533 0 8 0L20 0C24.418277998646346 0 28 3.5817220013536533 28 8L28 20C28 24.418277998646346 24.418277998646346 28 20 28L8 28C3.5817220013536533 28 0 24.418277998646346 0 20Z" fill="#E9EFFF" fill-opacity="1"/><path d="M8,20.700000284558104L20,20.700000284558104Q20.068944000000002,20.700000284558104,20.136563000000002,20.686549884558104Q20.204182,20.673099684558107,20.267878,20.646715874558105Q20.331573,20.620332124558104,20.388899000000002,20.582028924558106Q20.446223,20.543725724558104,20.494974,20.494974974558104Q20.543723999999997,20.446224214558107,20.582027,20.388899384558105Q20.620331,20.331574554558106,20.646714,20.267878654558107Q20.673098,20.204182744558107,20.686548000000002,20.136563534558107Q20.699999,20.068944304558105,20.7,20.000000324558105Q20.699999,19.931056354558105,20.686548000000002,19.863437084558104Q20.673098,19.795817854558106,20.646714,19.732121929558105Q20.620331,19.668426003258105,20.582027,19.611101180558105Q20.543723999999997,19.553776364558104,20.494974,19.505025594558106Q20.446223,19.456274864558104,20.388897999999998,19.417971644558104Q20.331573,19.379668414558104,20.267878,19.353284714558104Q20.204182,19.326900984558105,20.136563000000002,19.313450664558104Q20.068944000000002,19.300000364558105,20,19.300000344558107L8,19.300000344558107Q7.931056023,19.300000364558105,7.86343679,19.313450694558107Q7.79581757,19.326900954558106,7.73212165,19.353284684558105Q7.66842571,19.379668414558104,7.61110088,19.417971644558104Q7.55377603,19.456274864558104,7.50502527,19.505025594558106Q7.45627457,19.553776364558104,7.41797137,19.611101187558106Q7.37966812,19.668426003258105,7.35328442,19.732121929558105Q7.32690072,19.795817854558106,7.31345034,19.863437104558106Q7.30000007,19.931056354558105,7.30000001,20.000000324558105Q7.30000007,20.068944304558105,7.31345034,20.136563534558107Q7.32690066,20.204182744558107,7.35328436,20.267878654558107Q7.37966812,20.331574554558106,7.41797137,20.388899384558105Q7.45627457,20.446224214558107,7.50502527,20.494974974558104Q7.55377603,20.543725724558104,7.61110088,20.582028924558106Q7.66842571,20.620332124558104,7.73212165,20.646715874558105Q7.79581757,20.673099684558107,7.86343679,20.686549884558104Q7.931056023,20.700000284558104,8,20.700000284558104Z" fill-rule="evenodd" fill="#0047FF" fill-opacity="1"/><path d="M11.30000001,11.33333334Q11.30000007,11.40227732,11.31345034,11.46989655Q11.32690066,11.53751576,11.35328436,11.60121167Q11.37966812,11.66490757,11.41797137,11.7222324Q11.45627457,11.77955723,11.50502527,11.82830799Q11.55377603,11.87705874,11.61110088,11.91536194Q11.66842571,11.95366514,11.73212165,11.980048889999999Q11.79581757,12.0064327,11.86343679,12.0198829Q11.931056023,12.0333333,12,12.0333333L12.66666669,12.0333333Q12.73561066,12.0333333,12.80322993,12.0198829Q12.87084913,12.0064327,12.93454504,11.980048889999999Q12.99824095,11.95366514,13.0555657,11.91536194Q13.1128905,11.87705874,13.1616414,11.82830799Q13.210392,11.77955723,13.2486953,11.7222324Q13.2869985,11.66490757,13.3133821,11.60121167Q13.3397659,11.53751576,13.3532162,11.46989655Q13.3666666,11.40227732,13.3666667,11.33333334Q13.3666666,11.26438937,13.3532163,11.1967701Q13.339766000000001,11.12915087,13.3133823,11.065454945Q13.2869985,11.0017590187,13.2486953,10.944434196Q13.210392,10.88710938,13.1616414,10.83835861Q13.1128905,10.78960788,13.0555657,10.75130466Q12.99824095,10.71300143,12.93454504,10.68661773Q12.87084913,10.660233999999999,12.80322993,10.64678368Q12.73561066,10.63333338,12.66666669,10.63333336L12,10.63333336Q11.931056023,10.63333338,11.86343679,10.64678371Q11.79581757,10.66023397,11.73212165,10.6866177Q11.66842571,10.71300143,11.61110088,10.75130466Q11.55377603,10.78960788,11.50502527,10.83835861Q11.45627457,10.88710938,11.41797137,10.944434203Q11.37966812,11.0017590187,11.35328442,11.065454945Q11.32690072,11.12915087,11.31345034,11.19677012Q11.30000007,11.26438937,11.30000001,11.33333334Z" fill-rule="evenodd" fill="#0047FF" fill-opacity="1"/><path d="M11.30000001,13.999999847720947Q11.30000007,14.068943827720947,11.31345034,14.136563057720947Q11.32690066,14.204182267720947,11.35328436,14.267878177720947Q11.37966812,14.331574077720948,11.41797137,14.388898907720947Q11.45627457,14.446223737720947,11.50502527,14.494974497720948Q11.55377603,14.543725247720948,11.61110088,14.582028447720948Q11.66842571,14.620331647720947,11.73212165,14.646715397720946Q11.79581757,14.673099207720947,11.86343679,14.686549407720948Q11.931056023,14.699999807720948,12,14.699999807720948L12.66666669,14.699999807720948Q12.73561066,14.699999807720948,12.80322993,14.686549407720948Q12.87084913,14.673099207720947,12.93454504,14.646715397720946Q12.99824095,14.620331647720947,13.0555657,14.582028447720948Q13.1128905,14.543725247720948,13.1616414,14.494974497720948Q13.210392,14.446223737720947,13.2486953,14.388898907720947Q13.2869985,14.331574077720948,13.3133821,14.267878177720947Q13.3397659,14.204182267720947,13.3532162,14.136563057720947Q13.3666666,14.068943827720947,13.3666667,13.999999847720947Q13.3666666,13.931055877720947,13.3532163,13.863436607720947Q13.339766000000001,13.795817377720947,13.3133823,13.732121452720948Q13.2869985,13.668425526420947,13.2486953,13.611100703720947Q13.210392,13.553775887720947,13.1616414,13.505025117720947Q13.1128905,13.456274387720947,13.0555657,13.417971167720948Q12.99824095,13.379667937720948,12.93454504,13.353284237720947Q12.87084913,13.326900507720946,12.80322993,13.313450187720948Q12.73561066,13.299999887720947,12.66666669,13.299999867720947L12,13.299999867720947Q11.931056023,13.299999887720947,11.86343679,13.313450217720947Q11.79581757,13.326900477720947,11.73212165,13.353284207720947Q11.66842571,13.379667937720948,11.61110088,13.417971167720948Q11.55377603,13.456274387720947,11.50502527,13.505025117720947Q11.45627457,13.553775887720947,11.41797137,13.611100710720947Q11.37966812,13.668425526420947,11.35328442,13.732121452720948Q11.32690072,13.795817377720947,11.31345034,13.863436627720947Q11.30000007,13.931055877720947,11.30000001,13.999999847720947Z" fill-rule="evenodd" fill="#0047FF" fill-opacity="1"/><path d="M11.30000001,16.666666355441894Q11.30000007,16.735610335441894,11.31345034,16.803229565441896Q11.32690066,16.870848775441896,11.35328436,16.934544685441896Q11.37966812,16.998240585441895,11.41797137,17.055565415441894Q11.45627457,17.112890245441896,11.50502527,17.161641005441894Q11.55377603,17.210391755441893,11.61110088,17.248694955441895Q11.66842571,17.286998155441893,11.73212165,17.313381905441894Q11.79581757,17.339765715441896,11.86343679,17.353215915441893Q11.931056023,17.366666315441893,12,17.366666315441893L12.66666669,17.366666315441893Q12.73561066,17.366666315441893,12.80322993,17.353215915441893Q12.87084913,17.339765715441896,12.93454504,17.313381905441894Q12.99824095,17.286998155441893,13.0555657,17.248694955441895Q13.1128905,17.210391755441893,13.1616414,17.161641005441894Q13.210392,17.112890245441896,13.2486953,17.055565415441894Q13.2869985,16.998240585441895,13.3133821,16.934544685441896Q13.3397659,16.870848775441896,13.3532162,16.803229565441896Q13.3666666,16.735610335441894,13.3666667,16.666666355441894Q13.3666666,16.597722385441894,13.3532163,16.530103115441893Q13.339766000000001,16.462483885441895,13.3133823,16.398787960441894Q13.2869985,16.335092034141894,13.2486953,16.277767211441894Q13.210392,16.220442395441893,13.1616414,16.171691625441895Q13.1128905,16.122940895441893,13.0555657,16.084637675441893Q12.99824095,16.046334445441893,12.93454504,16.019950745441893Q12.87084913,15.993567015441894,12.80322993,15.980116695441895Q12.73561066,15.966666395441894,12.66666669,15.966666375441894L12,15.966666375441894Q11.931056023,15.966666395441894,11.86343679,15.980116725441894Q11.79581757,15.993566985441895,11.73212165,16.019950715441894Q11.66842571,16.046334445441893,11.61110088,16.084637675441893Q11.55377603,16.122940895441893,11.50502527,16.171691625441895Q11.45627457,16.220442395441893,11.41797137,16.277767218441895Q11.37966812,16.335092034141894,11.35328442,16.398787960441894Q11.32690072,16.462483885441895,11.31345034,16.530103135441895Q11.30000007,16.597722385441894,11.30000001,16.666666355441894Z" fill-rule="evenodd" fill="#0047FF" fill-opacity="1"/><path d="M14.6330078225,11.33333334Q14.6330078825,11.40227732,14.6464581525,11.46989655Q14.6599084725,11.53751576,14.6862921725,11.60121167Q14.7126759325,11.66490757,14.7509791825,11.7222324Q14.7892823825,11.77955723,14.8380330825,11.82830799Q14.8867838425,11.87705874,14.9441086925,11.91536194Q15.0014335225,11.95366514,15.0651294625,11.980048889999999Q15.1288253825,12.0064327,15.1964446025,12.0198829Q15.2640638355,12.0333333,15.3330078125,12.0333333L15.9996745025,12.0333333Q16.0686184725,12.0333333,16.1362377425,12.0198829Q16.2038569425,12.0064327,16.2675528525,11.980048889999999Q16.3312487625,11.95366514,16.3885735125,11.91536194Q16.4458983125,11.87705874,16.4946492125,11.82830799Q16.5433998125,11.77955723,16.5817031125,11.7222324Q16.6200063125,11.66490757,16.6463899125,11.60121167Q16.6727737125,11.53751576,16.6862240125,11.46989655Q16.6996744125,11.40227732,16.6996745125,11.33333334Q16.6996744125,11.26438937,16.6862241125,11.1967701Q16.6727738125,11.12915087,16.6463901125,11.065454945Q16.6200063125,11.0017590187,16.5817031125,10.944434196Q16.5433998125,10.88710938,16.4946492125,10.83835861Q16.4458983125,10.78960788,16.3885735125,10.75130466Q16.3312487625,10.71300143,16.2675528525,10.68661773Q16.2038569425,10.660233999999999,16.1362377425,10.64678368Q16.0686184725,10.63333338,15.9996745025,10.63333336L15.3330078125,10.63333336Q15.2640638355,10.63333338,15.1964446025,10.64678371Q15.1288253825,10.66023397,15.0651294625,10.6866177Q15.0014335225,10.71300143,14.9441086925,10.75130466Q14.8867838425,10.78960788,14.8380330825,10.83835861Q14.7892823825,10.88710938,14.7509791825,10.944434203Q14.7126759325,11.0017590187,14.6862922325,11.065454945Q14.6599085325,11.12915087,14.6464581525,11.19677012Q14.6330078825,11.26438937,14.6330078225,11.33333334Z" fill-rule="evenodd" fill="#0047FF" fill-opacity="1"/><path d="M14.6330078225,13.999999847720947Q14.6330078825,14.068943827720947,14.6464581525,14.136563057720947Q14.6599084725,14.204182267720947,14.6862921725,14.267878177720947Q14.7126759325,14.331574077720948,14.7509791825,14.388898907720947Q14.7892823825,14.446223737720947,14.8380330825,14.494974497720948Q14.8867838425,14.543725247720948,14.9441086925,14.582028447720948Q15.0014335225,14.620331647720947,15.0651294625,14.646715397720946Q15.1288253825,14.673099207720947,15.1964446025,14.686549407720948Q15.2640638355,14.699999807720948,15.3330078125,14.699999807720948L15.9996745025,14.699999807720948Q16.0686184725,14.699999807720948,16.1362377425,14.686549407720948Q16.2038569425,14.673099207720947,16.2675528525,14.646715397720946Q16.3312487625,14.620331647720947,16.3885735125,14.582028447720948Q16.4458983125,14.543725247720948,16.4946492125,14.494974497720948Q16.5433998125,14.446223737720947,16.5817031125,14.388898907720947Q16.6200063125,14.331574077720948,16.6463899125,14.267878177720947Q16.6727737125,14.204182267720947,16.6862240125,14.136563057720947Q16.6996744125,14.068943827720947,16.6996745125,13.999999847720947Q16.6996744125,13.931055877720947,16.6862241125,13.863436607720947Q16.6727738125,13.795817377720947,16.6463901125,13.732121452720948Q16.6200063125,13.668425526420947,16.5817031125,13.611100703720947Q16.5433998125,13.553775887720947,16.4946492125,13.505025117720947Q16.4458983125,13.456274387720947,16.3885735125,13.417971167720948Q16.3312487625,13.379667937720948,16.2675528525,13.353284237720947Q16.2038569425,13.326900507720946,16.1362377425,13.313450187720948Q16.0686184725,13.299999887720947,15.9996745025,13.299999867720947L15.3330078125,13.299999867720947Q15.2640638355,13.299999887720947,15.1964446025,13.313450217720947Q15.1288253825,13.326900477720947,15.0651294625,13.353284207720947Q15.0014335225,13.379667937720948,14.9441086925,13.417971167720948Q14.8867838425,13.456274387720947,14.8380330825,13.505025117720947Q14.7892823825,13.553775887720947,14.7509791825,13.611100710720947Q14.7126759325,13.668425526420947,14.6862922325,13.732121452720948Q14.6599085325,13.795817377720947,14.6464581525,13.863436627720947Q14.6330078825,13.931055877720947,14.6330078225,13.999999847720947Z" fill-rule="evenodd" fill="#0047FF" fill-opacity="1"/><path d="M14.6330078225,16.666666355441894Q14.6330078825,16.735610335441894,14.6464581525,16.803229565441896Q14.6599084725,16.870848775441896,14.6862921725,16.934544685441896Q14.7126759325,16.998240585441895,14.7509791825,17.055565415441894Q14.7892823825,17.112890245441896,14.8380330825,17.161641005441894Q14.8867838425,17.210391755441893,14.9441086925,17.248694955441895Q15.0014335225,17.286998155441893,15.0651294625,17.313381905441894Q15.1288253825,17.339765715441896,15.1964446025,17.353215915441893Q15.2640638355,17.366666315441893,15.3330078125,17.366666315441893L15.9996745025,17.366666315441893Q16.0686184725,17.366666315441893,16.1362377425,17.353215915441893Q16.2038569425,17.339765715441896,16.2675528525,17.313381905441894Q16.3312487625,17.286998155441893,16.3885735125,17.248694955441895Q16.4458983125,17.210391755441893,16.4946492125,17.161641005441894Q16.5433998125,17.112890245441896,16.5817031125,17.055565415441894Q16.6200063125,16.998240585441895,16.6463899125,16.934544685441896Q16.6727737125,16.870848775441896,16.6862240125,16.803229565441896Q16.6996744125,16.735610335441894,16.6996745125,16.666666355441894Q16.6996744125,16.597722385441894,16.6862241125,16.530103115441893Q16.6727738125,16.462483885441895,16.6463901125,16.398787960441894Q16.6200063125,16.335092034141894,16.5817031125,16.277767211441894Q16.5433998125,16.220442395441893,16.4946492125,16.171691625441895Q16.4458983125,16.122940895441893,16.3885735125,16.084637675441893Q16.3312487625,16.046334445441893,16.2675528525,16.019950745441893Q16.2038569425,15.993567015441894,16.1362377425,15.980116695441895Q16.0686184725,15.966666395441894,15.9996745025,15.966666375441894L15.3330078125,15.966666375441894Q15.2640638355,15.966666395441894,15.1964446025,15.980116725441894Q15.1288253825,15.993566985441895,15.0651294625,16.019950715441894Q15.0014335225,16.046334445441893,14.9441086925,16.084637675441893Q14.8867838425,16.122940895441893,14.8380330825,16.171691625441895Q14.7892823825,16.220442395441893,14.7509791825,16.277767218441895Q14.7126759325,16.335092034141894,14.6862922325,16.398787960441894Q14.6599085325,16.462483885441895,14.6464581525,16.530103135441895Q14.6330078825,16.597722385441894,14.6330078225,16.666666355441894Z" fill-rule="evenodd" fill="#0047FF" fill-opacity="1"/><path d="M17.9663410125,9.3333334L17.9663410125,19.999999000000003Q17.9663410125,20.068943,17.9797916125,20.13656Q17.9932413125,20.20418,18.0196247125,20.267876Q18.046008112499997,20.331572,18.0843115125,20.388897Q18.1226148125,20.446222,18.1713657125,20.494974Q18.220115612500003,20.543723999999997,18.2774410125,20.582027Q18.334765412499998,20.620331,18.3984613125,20.646714Q18.4621582125,20.673098,18.5297766125,20.686548000000002Q18.5973968125,20.699999,18.6663408125,20.7Q18.7352838125,20.699999,18.8029032125,20.686548000000002Q18.870521512499998,20.673098,18.9342184125,20.646714Q18.9979143125,20.620331,19.0552397125,20.582027Q19.1125641125,20.543723999999997,19.1613159125,20.494973Q19.210065812499998,20.446222,19.248369212500002,20.388897Q19.2866726125,20.331572,19.3130560125,20.267876Q19.3394398125,20.20418,19.352889812500003,20.136561Q19.3663408125,20.068943,19.3663418125,19.999999000000003L19.3663418125,9.3333334Q19.3663418125,8.49109989,18.770790112500002,7.89554936Q18.1752405125,7.30000013,17.3330059125,7.30000001L10.6663412125,7.30000001Q9.8241069325,7.30000001,9.2285574125,7.89554953Q8.6330078225,8.49109912,8.6330078225,9.3333334L8.6330078225,19.999999000000003Q8.6330078825,20.068943,8.6464581525,20.13656Q8.6599084725,20.20418,8.6862921725,20.267876Q8.7126759325,20.331572,8.7509791825,20.388897Q8.7892823825,20.446222,8.8380330825,20.494974Q8.8867838425,20.543723999999997,8.9441086925,20.582027Q9.0014335225,20.620331,9.0651294625,20.646714Q9.1288253825,20.673098,9.1964446025,20.686548000000002Q9.2640638355,20.699999,9.3330078125,20.7Q9.4019517895,20.699999,9.4695710225,20.686548000000002Q9.5371902425,20.673098,9.6008861625,20.646714Q9.6645821025,20.620331,9.7219069325,20.582027Q9.7792317825,20.543723999999997,9.8279825425,20.494973Q9.8767332425,20.446222,9.9150364425,20.388897Q9.9533396925,20.331572,9.9797233925,20.267876Q10.0061070925,20.20418,10.0195574725,20.136561Q10.0330077425,20.068943,10.0330078025,19.999999000000003L10.0330078025,9.3333334Q10.0330078025,9.0709981,10.2185068725,8.885499Q10.4040059125,8.69999999,10.6663412125,8.69999999L17.3330059125,8.69999999Q17.595342612499998,8.69999999,17.7808418125,8.88549936Q17.9663410125,9.0709984,17.9663410125,9.3333334Z" fill-rule="evenodd" fill="#1947FF" fill-opacity="1"/></g></svg>