<svg xmlns="http://www.w3.org/2000/svg" xmlns:xlink="http://www.w3.org/1999/xlink" fill="none" version="1.1" width="28" height="28" viewBox="0 0 28 28"><defs><clipPath id="master_svg0_0_3237"><rect x="-0.699999988079071" y="-0.699999988079071" width="29.399999976158142" height="29.399999976158142" rx="0"/></clipPath><mask id="master_svg1_0_3238" style="mask-type:luminance" maskUnits="userSpaceOnUse" x="0" y="0" width="28" height="28"><path d="M0 8C4.90527396329193e-16 3.5817220013536524 3.5817220013536533 0 8 0L20 0C24.418277998646346 0 28 3.5817220013536533 28 8L28 20C28 24.418277998646346 24.418277998646346 28 20 28L8 28C3.5817220013536533 28 0 24.418277998646346 0 20Z" fill="#FFFFFF" fill-opacity="1"/></mask></defs><g clip-path="url(#master_svg0_0_3237)" mask="url(#master_svg1_0_3238)"><path d="M0 8C4.90527396329193e-16 3.5817220013536524 3.5817220013536533 0 8 0L20 0C24.418277998646346 0 28 3.5817220013536533 28 8L28 20C28 24.418277998646346 24.418277998646346 28 20 28L8 28C3.5817220013536533 28 0 24.418277998646346 0 20Z" fill="#FFF1DF" fill-opacity="1"/><path d="M16.3802671125,8.2860738Q15.3941932125,7.30000001,13.9996734125,7.30000001Q12.6051555125,7.30000001,11.6190817025,8.28607389Q10.6330080025,9.2721477,10.6330078225,10.6666667Q10.6330078225,12.0611858,11.6190817325,13.047259799999999Q12.6051557125,14.033333800000001,13.9996745125,14.033333800000001Q15.3941936125,14.033333800000001,16.3802676125,13.0472593Q17.3663416125,12.0611849,17.3663416125,10.6666656Q17.3663416125,9.2721477,16.3802671125,8.2860738ZM12.6090312125,9.2760234Q13.1850546125,8.69999999,13.9996745125,8.69999999Q14.8142938125,8.69999999,15.390317912499999,9.2760234Q15.9663410125,9.8520467,15.9663410125,10.6666656Q15.9663410125,11.4812868,15.390317912499999,12.057310099999999Q14.8142953125,12.6333332,13.9996745125,12.6333332Q13.1850543125,12.6333332,12.6090312125,12.057310099999999Q12.0330078025,11.481287,12.0330078025,10.6666667Q12.0330078025,9.8520468,12.6090312125,9.2760234Z" fill-rule="evenodd" fill="#FF6600" fill-opacity="1"/><path d="M18.3000002,18.6666667L18.3000002,20Q18.299999200000002,20.068944000000002,18.313449900000002,20.1365628Q18.3268995,20.2041821,18.3532829,20.2678781Q18.3796663,20.331574,18.4179697,20.3888988Q18.456274,20.4462233,18.505024900000002,20.4949741Q18.5537758,20.543725000000002,18.6111002,20.5820284Q18.6684246,20.6203313,18.7321205,20.6467152Q18.7958164,20.673099,18.8634357,20.6865492Q18.931055100000002,20.6999998,19,20.6999998Q19.068943,20.6999998,19.136561999999998,20.6865492Q19.204181,20.673099,19.267877,20.6467152Q19.331572,20.6203313,19.388897,20.5820284Q19.446222,20.543725000000002,19.494973,20.4949741Q19.543723999999997,20.4462233,19.582026,20.3888988Q19.620331,20.331574,19.646714,20.2678781Q19.673098,20.2041821,19.686548000000002,20.1365633Q19.699999,20.068944000000002,19.7,20L19.7,18.6666667Q19.7,17.2256596,18.460975599999998,16.23444039Q17.2929249,15.29999995,15.666666,15.30000001L12.3333333,15.30000001Q10.7070746,15.30000001,9.53902417,16.23444051Q8.30000013,17.2256598,8.30000025,18.6666667L8.30000001,20Q8.30000007,20.068944000000002,8.31345034,20.1365628Q8.32690066,20.2041821,8.35328436,20.2678781Q8.37966812,20.331574,8.41797137,20.3888988Q8.45627457,20.4462233,8.50502527,20.4949741Q8.55377603,20.543725000000002,8.61110088,20.5820284Q8.66842571,20.6203313,8.73212165,20.6467152Q8.79581757,20.673099,8.86343679,20.6865492Q8.931056023,20.6999998,9,20.6999998Q9.068943977,20.6999998,9.13656321,20.6865492Q9.20418243,20.673099,9.26787835,20.6467152Q9.33157429,20.6203313,9.38889912,20.5820284Q9.44622397,20.543725000000002,9.49497473,20.4949741Q9.54372543,20.4462233,9.58202863,20.3888988Q9.62033188,20.331574,9.64671558,20.2678781Q9.67309928,20.2041821,9.68654966,20.1365633Q9.69999993,20.068944000000002,9.69999999,20L9.70000023,18.6666667Q9.70000011,17.8985345,10.4135973,17.3276567Q11.198168299999999,16.69999999,12.3333333,16.69999999L15.666666,16.69999999Q16.8018317,16.69999993,17.5864029,17.3276567Q18.3000002,17.8985345,18.3000002,18.6666667Z" fill-rule="evenodd" fill="#FF6600" fill-opacity="1"/></g></svg>