<svg xmlns="http://www.w3.org/2000/svg" xmlns:xlink="http://www.w3.org/1999/xlink" fill="none" version="1.1" width="16" height="16" viewBox="0 0 16 16"><defs><clipPath id="master_svg0_0_3305"><rect x="-0.6000000238418579" y="-0.6000000238418579" width="17.200000047683716" height="17.200000047683716" rx="0"/></clipPath></defs><g clip-path="url(#master_svg0_0_3305)"><path d="M8.6666665,9.266667004558105Q8.8004651,9.266667004558105,8.9234281,9.312919144558105Q8.9787393,9.333724264558105,9.0370464,9.343338964558106Q9.0953538,9.352953674558105,9.1544166,9.351008414558105Q9.2134795,9.349063154558106,9.271028,9.335632684558105Q9.3285766,9.322202324558106,9.3823991,9.297802804558106Q9.4362216,9.273403284558105,9.4842496,9.238972304558105Q9.5322781,9.204541324558106,9.5726662,9.161402104558105Q9.6130543,9.118262884558105,9.6442506,9.068073274558106Q9.675447,9.017883624558106,9.6962523,8.962572304558105Q9.7382703,8.850866044558105,9.7343416,8.731583349558106Q9.730413200000001,8.612300649558106,9.6811364,8.503601194558106Q9.6318593,8.394901664558105,9.5447354,8.313333894558106Q9.4576116,8.231766164558106,9.3459053,8.189748164558106Q9.0186896,8.066666964558106,8.6666665,8.066666964558106L7.3333333,8.066666964558106Q6.53252029,8.066666964558106,5.966260169,8.632927197558105Q5.39999992,9.199187454558105,5.3999998,10.000000284558105L5.3999999800000005,13.999999984558105Q5.3999999800000005,14.059094384558104,5.41152883,14.117053984558105Q5.42305768,14.175013084558106,5.44567233,14.229609484558106Q5.46828693,14.284206384558106,5.50111827,14.333341584558106Q5.53394958,14.382477784558105,5.5757359300000005,14.424263984558106Q5.6175223,14.466050184558107,5.66665787,14.498881384558105Q5.71579343,14.531712484558106,5.77038994,14.554326984558106Q5.82498646,14.576941984558106,5.88294581,14.588471384558105Q5.940905157,14.600000384558106,6,14.600000384558106Q6.059094843,14.600000384558106,6.11705419,14.588471384558105Q6.17501354,14.576942484558106,6.22961006,14.554327484558105Q6.28420657,14.531713484558106,6.33334213,14.498882284558105Q6.3824777,14.466051084558107,6.4242640699999995,14.424264384558105Q6.46605042,14.382477784558105,6.49888176,14.333341584558106Q6.53171307,14.284206384558106,6.55432767,14.229609484558106Q6.57694232,14.175013084558106,6.58847117,14.117053484558106Q6.6000000199999995,14.059094384558104,6.6000000199999995,13.999999984558105L6.59999985,10.000000384558106Q6.5999999,9.696243884558106,6.81478834,9.481455324558105Q7.0295767,9.266667004558105,7.3333333,9.266667004558105L8.6666665,9.266667004558105Z" fill-rule="evenodd" fill="#191C1E" fill-opacity="1"/><path d="M4.666667,14.599999L8,14.599999Q8.0590944,14.599998,8.117054,14.58847Q8.175013100000001,14.576941,8.229609499999999,14.554325Q8.2842064,14.531711,8.3333416,14.498879Q8.3824778,14.466049,8.424264,14.424263Q8.4660501,14.382477,8.4988813,14.333342Q8.531713,14.284205,8.554328,14.229609Q8.5769424,14.175013,8.5884714,14.117053Q8.600000399999999,14.059094,8.600000399999999,14Q8.600000399999999,13.940905,8.5884714,13.882945Q8.5769424,13.824986,8.554328,13.770389Q8.531713,13.715792,8.4988813,13.666656Q8.4660501,13.617521,8.424264,13.575735Q8.3824778,13.533948,8.3333416,13.501117Q8.2842064,13.468286,8.229609499999999,13.445671Q8.175013100000001,13.423058,8.1170535,13.411529Q8.0590944,13.4,8,13.4L4.666667,13.4Q3.9333334,13.4,3.9333334,12.666669L3.9333334,8Q3.9333334,7.9476099,3.9242536,7.8960118Q3.9151735,7.8444147,3.8972883,7.7951713Q3.8794032,7.7459278,3.8532542000000003,7.7005296Q3.8271052,7.6551313,3.7934836,7.6149521Q3.7598623,7.5747728,3.719786,7.541029Q3.6797098999999998,7.5072851,3.6343918,7.4809971Q3.5890738,7.4547091,3.5398855,7.4366736Q3.4906974,7.4186382,3.4391277000000002,7.4094005L8,2.8485280299999998L12.560872,7.4094005Q12.509301,7.4186378,12.460113,7.4366732Q12.410925,7.4547091,12.365608,7.4809976Q12.32029,7.5072851,12.280212,7.541029Q12.240137,7.5747733,12.206516,7.614953Q12.172894,7.6551318,12.146746,7.7005301Q12.120597,7.7459278,12.102713,7.7951713Q12.084827,7.8444138,12.075747,7.8960114Q12.066668,7.9476089,12.066668,8Q12.066668,8.0590944,12.078196,8.117054Q12.089725,8.175013100000001,12.112339,8.229609499999999Q12.134953,8.2842064,12.167785,8.3333416Q12.200617,8.3824778,12.242403,8.424264Q12.284189,8.4660501,12.333324,8.4988813Q12.38246,8.531713,12.437057,8.554328Q12.491653,8.5769424,12.549613,8.5884714Q12.607573,8.600000399999999,12.666668,8.600000399999999L14,8.600000399999999Q14.119347,8.600000399999999,14.229609,8.554328Q14.339872,8.5086555,14.424264,8.424264Q14.46605,8.3824778,14.49888,8.3333416Q14.531712,8.2842064,14.554327,8.229609499999999Q14.576941,8.175012599999999,14.58847,8.1170535Q14.599998,8.0590944,14.599999,7.9999995Q14.599998,7.9409046,14.58847,7.8829451Q14.576941,7.8249855,14.554327,7.7703896Q14.531712,7.7157927,14.49888,7.6666574Q14.46605,7.6175222,14.424264,7.575736L8.424264,1.57573593Q8.3398724,1.4913445699999999,8.229610000000001,1.44567227Q8.119347099999999,1.39999998,7.9999995,1.39999998Q7.880652,1.39999998,7.7703896,1.44567227Q7.6601272,1.4913445699999999,7.575736,1.57573593L1.57573593,7.575736Q1.4913445699999999,7.6601267,1.44567227,7.7703896Q1.39999998,7.8806524,1.39999998,8Q1.39999998,8.0590944,1.41152883,8.117054Q1.4230576799999999,8.175013100000001,1.4456723299999998,8.229609499999999Q1.46828693,8.2842064,1.50111827,8.3333416Q1.53394958,8.3824778,1.57573593,8.424264Q1.6175223,8.4660501,1.6666578699999999,8.4988813Q1.71579343,8.531713,1.77038994,8.554328Q1.82498646,8.5769424,1.88294581,8.5884714Q1.940905157,8.600000399999999,2,8.600000399999999L2.73333335,8.600000399999999L2.73333335,12.666669Q2.73333335,13.467481,3.2995939,14.03374Q3.8658544,14.599999,4.666667,14.599999Z" fill-rule="evenodd" fill="#191C1E" fill-opacity="1"/><path d="M11.090931054558105,15.090930415441894L14.424264384558105,11.757597085441894Q14.508655984558105,11.673205705441895,14.554328184558106,11.562943075441895Q14.600000584558106,11.452680435441895,14.600000584558106,11.333333015441895Q14.600000584558106,11.213985595441894,14.554328184558106,11.103722955441894Q14.508655984558105,10.993460325441895,14.424264384558105,10.909068945441895Q14.382477784558105,10.867282595441894,14.333342284558105,10.834451255441895Q14.284206384558106,10.801619945441894,14.229609984558106,10.779005345441895Q14.175013284558105,10.756390745441895,14.117053984558105,10.744861955441895Q14.059094684558104,10.733333115441894,13.999999984558105,10.733333055441895Q13.940905084558105,10.733333115441894,13.882945784558105,10.744861905441894Q13.824986484558107,10.756390745441895,13.770389984558106,10.779005345441895Q13.715793584558106,10.801619945441894,13.666657884558106,10.834451285441894Q13.617522484558105,10.867282595441894,13.575736284558106,10.909068945441895L10.242402914558106,14.242402315441895Q10.200616564558105,14.284188515441894,10.167785224558106,14.333323915441895Q10.134953914558105,14.382459615441896,10.112339314558106,14.437056015441895Q10.089724714558105,14.491652515441896,10.078195924558106,14.549611815441894Q10.066667084558105,14.607571115441894,10.066667024558106,14.666666315441894Q10.066667084558105,14.725760915441894,10.078195874558105,14.783720215441894Q10.089724714558105,14.841679615441894,10.112339314558106,14.896276015441895Q10.134953914558105,14.950872415441895,10.167785254558105,15.000008315441894Q10.200616564558105,15.049143815441894,10.242402914558106,15.090930415441894Q10.326794294558105,15.175322015441894,10.437056924558105,15.220994215441895Q10.547319564558105,15.266666615441896,10.666666984558105,15.266666615441896Q10.786014404558106,15.266666615441896,10.896277044558106,15.220994215441895Q11.006539674558105,15.175322015441894,11.090931054558105,15.090930415441894Z" fill-rule="evenodd" fill="#191C1E" fill-opacity="1"/><path d="M14,10.733332995441895L11,10.733332995441895Q10.940905157,10.733332995441895,10.88294581,10.744861845441894Q10.82498646,10.756390695441894,10.77038994,10.779005345441895Q10.71579343,10.801619945441894,10.66665787,10.834451285441894Q10.6175223,10.867282595441894,10.57573593,10.909068945441895Q10.53394958,10.950855315441894,10.50111824,10.999990885441894Q10.46828693,11.049126445441894,10.44567233,11.103722955441894Q10.42305768,11.158319475441894,10.41152883,11.216278825441895Q10.39999998,11.274238172441894,10.39999998,11.333333015441895Q10.39999998,11.392427858441895,10.41152883,11.450387205441894Q10.42305768,11.508346555441895,10.44567233,11.562943075441895Q10.46828693,11.617539585441895,10.50111827,11.666675145441895Q10.53394958,11.715810715441895,10.57573593,11.757597085441894Q10.6175223,11.799383435441895,10.66665787,11.832214775441894Q10.71579343,11.865046085441895,10.77038994,11.887660685441894Q10.82498646,11.910275335441895,10.88294581,11.921804185441895Q10.940905157,11.933333035441894,11,11.933333035441894L13.399999900000001,11.933333035441894L13.399999900000001,14.333333015441895Q13.399999600000001,14.392427715441894,13.4115286,14.450387015441894Q13.4230571,14.508346115441896,13.4456718,14.562942715441896Q13.4682865,14.617539415441895,13.5011177,14.666675115441894Q13.533949100000001,14.715810515441895,13.5757356,14.757597015441895Q13.6175218,14.799383115441895,13.6666574,14.832214315441895Q13.7157929,14.865045815441896,13.7703896,14.887660515441894Q13.8249862,14.910275215441894,13.8829455,14.921804215441895Q13.9409051,14.933332915441895,14,14.933333115441894Q14.0590947,14.933332915441895,14.117054,14.921803915441895Q14.175013100000001,14.910275215441894,14.229609700000001,14.887660515441894Q14.2842064,14.865045815441896,14.3333421,14.832214615441895Q14.3824775,14.799383115441895,14.424264,14.757597015441895Q14.4660501,14.715810515441895,14.4988813,14.666674815441894Q14.531712800000001,14.617539415441895,14.5543275,14.562942715441896Q14.5769422,14.508346115441896,14.5884712,14.450386715441894Q14.5999999,14.392427715441894,14.600000099999999,14.333333015441895L14.600000099999999,11.333333015441895Q14.5999999,11.274238172441894,14.5884709,11.216278825441895Q14.5769422,11.158319475441894,14.5543275,11.103722955441894Q14.531712800000001,11.049126445441894,14.4988816,10.999990885441894Q14.4660501,10.950855315441894,14.424264,10.909068945441895Q14.3824775,10.867282595441894,14.3333418,10.834451255441895Q14.2842064,10.801619945441894,14.229609700000001,10.779005345441895Q14.175013100000001,10.756390695441894,14.1170537,10.744861845441894Q14.0590947,10.733332995441895,14,10.733332995441895Z" fill-rule="evenodd" fill="#191C1E" fill-opacity="1"/></g></svg>