<svg xmlns="http://www.w3.org/2000/svg" xmlns:xlink="http://www.w3.org/1999/xlink" fill="none" version="1.1" width="28" height="28" viewBox="0 0 28 28"><defs><clipPath id="master_svg0_0_3263"><rect x="-0.699999988079071" y="-0.699999988079071" width="29.399999976158142" height="29.399999976158142" rx="0"/></clipPath><mask id="master_svg1_0_3264" style="mask-type:luminance" maskUnits="userSpaceOnUse" x="0" y="0" width="28" height="28"><path d="M0 8C4.90527396329193e-16 3.5817220013536524 3.5817220013536533 0 8 0L20 0C24.418277998646346 0 28 3.5817220013536533 28 8L28 20C28 24.418277998646346 24.418277998646346 28 20 28L8 28C3.5817220013536533 28 0 24.418277998646346 0 20Z" fill="#FFFFFF" fill-opacity="1"/></mask></defs><g clip-path="url(#master_svg0_0_3263)" mask="url(#master_svg1_0_3264)"><path d="M0 8C4.90527396329193e-16 3.5817220013536524 3.5817220013536533 0 8 0L20 0C24.418277998646346 0 28 3.5817220013536533 28 8L28 20C28 24.418277998646346 24.418277998646346 28 20 28L8 28C3.5817220013536533 28 0 24.418277998646346 0 20Z" fill="#EFECFF" fill-opacity="1"/><path d="M14.3802671125,8.2860738Q13.3941932125,7.30000001,11.9996734125,7.30000001Q10.6051555125,7.30000001,9.6190817025,8.28607389Q8.6330080025,9.2721477,8.6330078225,10.6666667Q8.6330078225,12.0611858,9.6190817325,13.047259799999999Q10.6051557125,14.033333800000001,11.9996745125,14.033333800000001Q13.3941936125,14.033333800000001,14.380267612499999,13.0472593Q15.366341612500001,12.0611849,15.366341612500001,10.6666656Q15.366341612500001,9.2721477,14.3802671125,8.2860738ZM10.6090312125,9.2760234Q11.1850546125,8.69999999,11.9996745125,8.69999999Q12.8142938125,8.69999999,13.390317912499999,9.2760234Q13.9663410125,9.8520467,13.9663410125,10.6666656Q13.9663410125,11.4812868,13.390317912499999,12.057310099999999Q12.8142953125,12.6333332,11.9996745125,12.6333332Q11.1850543125,12.6333332,10.6090312125,12.057310099999999Q10.0330078025,11.481287,10.0330078025,10.6666667Q10.0330078025,9.8520468,10.6090312125,9.2760234Z" fill-rule="evenodd" fill="#3813FF" fill-opacity="1"/><path d="M15.3000002,18.6666667L15.3000002,20Q15.2999997,20.068944000000002,15.3134499,20.1365628Q15.3269,20.2041821,15.353283900000001,20.2678781Q15.379667300000001,20.331574,15.4179707,20.3888988Q15.4562736,20.4462233,15.5050249,20.4949741Q15.5537758,20.543725000000002,15.6111007,20.5820284Q15.6684251,20.6203313,15.732121,20.6467152Q15.7958169,20.673099,15.863436199999999,20.6865492Q15.931056,20.6999998,16,20.6999998Q16.068944000000002,20.6999998,16.1365633,20.6865492Q16.2041817,20.673099,16.2678776,20.6467152Q16.331573499999998,20.6203313,16.3888988,20.5820284Q16.4462233,20.543725000000002,16.4949741,20.4949741Q16.5437241,20.4462233,16.5820274,20.3888988Q16.620330799999998,20.331574,16.646714199999998,20.2678781Q16.6730976,20.2041821,16.6865482,20.1365633Q16.6999989,20.068944000000002,16.6999998,20L16.6999998,18.6666667Q16.6999998,17.2721473,15.7139268,16.28607392Q14.7278533,15.30000001,13.3333349,15.30000001L10.6666667,15.30000001Q9.2721479,15.30000001,8.2860738,16.28607392Q7.29999995,17.2721478,7.30000001,18.6666667L7.30000001,20Q7.30000007,20.068944000000002,7.31345034,20.1365628Q7.32690066,20.2041821,7.35328436,20.2678781Q7.37966812,20.331574,7.41797137,20.3888988Q7.45627457,20.4462233,7.50502527,20.4949741Q7.55377603,20.543725000000002,7.61110088,20.5820284Q7.66842571,20.6203313,7.73212165,20.6467152Q7.79581757,20.673099,7.86343679,20.6865492Q7.931056023,20.6999998,8,20.6999998Q8.068943977,20.6999998,8.13656321,20.6865492Q8.20418243,20.673099,8.26787835,20.6467152Q8.33157429,20.6203313,8.38889912,20.5820284Q8.44622397,20.543725000000002,8.49497473,20.4949741Q8.54372543,20.4462233,8.58202863,20.3888988Q8.62033188,20.331574,8.64671558,20.2678781Q8.67309928,20.2041821,8.68654966,20.1365633Q8.69999993,20.068944000000002,8.69999999,20L8.69999999,18.6666667Q8.69999987,17.8520467,9.2760233,17.2760234Q9.8520467,16.69999999,10.6666667,16.69999999L13.3333349,16.69999999Q14.1479535,16.69999993,14.7239766,17.2760231Q15.3000002,17.8520471,15.3000002,18.6666667Z" fill-rule="evenodd" fill="#3813FF" fill-opacity="1"/><path d="M17.5591208375,11.875905484014893Q17.1460209175,12.408101584014894,16.4933648075,12.575207684014892Q16.4265753475,12.592308484014893,16.3644054275,12.622110884014893Q16.3022354875,12.651912684014892,16.2470742775,12.693271184014893Q16.1919130075,12.734629184014892,16.1458803375,12.785954484014892Q16.0998475575,12.837279784014893,16.0647124075,12.896599284014894Q16.0295772575,12.955918784014893,16.0066897875,13.020952684014892Q15.9838023775,13.085986584014893,15.9740422375,13.154236284014893Q15.9642820375,13.222485984014892,15.9680242575,13.291328384014893Q15.9717664675,13.360170884014892,15.9888672875,13.426960484014892Q16.0234038875,13.561848184014892,16.1069307375,13.673251184014893Q16.1904576075,13.784654184014894,16.3102584775,13.855612784014893Q16.4300593875,13.926571384014892,16.5678957475,13.946283384014894Q16.7057321035,13.965994384014893,16.8406195675,13.931457984014893Q17.9578783875,13.645394784014893,18.6650495875,12.734346884014894Q19.372220787499998,11.823298684014892,19.372220787499998,10.669999084014893Q19.3722209875,9.516700884014892,18.6650496875,8.605652814014892Q17.9578786875,7.694605114014893,16.8406203375,7.408541264014892Q16.7738307875,7.391440514014892,16.7049883825,7.387698354014892Q16.6361459775,7.383956194014893,16.5678962915,7.393716334014893Q16.4996466075,7.403476534014892,16.4346124275,7.426364004014893Q16.3695782375,7.4492514740148925,16.3102588075,7.4843866840148925Q16.2509393675,7.5195218940148925,16.1996143175,7.565554614014893Q16.1482892075,7.611587344014892,16.1069309075,7.666748614014892Q16.0655726175,7.721909824014893,16.0357703575,7.784079764014892Q16.0059681575,7.846249704014893,15.9888672875,7.913039164014893Q15.9543306875,8.047926579014893,15.9740421775,8.185762860014892Q15.9937536675,8.323599144014892,16.0647123475,8.443399964014892Q16.1356711375,8.563200834014893,16.2470743075,8.646727624014893Q16.3584775075,8.730254414014892,16.4933649875,8.764790954014893Q17.1460209175,8.931897584014893,17.5591208975,9.464093884014893Q17.9722208875,9.996290284014894,17.9722206875,10.669999084014893Q17.9722207875,11.343709184014893,17.5591208375,11.875905484014893Z" fill-rule="evenodd" fill="#3813FF" fill-opacity="1"/><path d="M19.9890051,16.612680431469727Q19.2846112,15.708708461469726,18.17498842,15.422225301469727Q18.040170595,15.387417911469727,17.902294971,15.406852721469727Q17.76441935,15.426287411469726,17.64447623,15.497005521469726Q17.52453309,15.567723631469727,17.44078273,15.678958861469727Q17.3570323,15.790194121469726,17.32222492,15.925011961469727Q17.28741753,16.059829786469727,17.30685234,16.197705410469727Q17.32628703,16.335581031469726,17.39700514,16.455524151469728Q17.46772325,16.575467291469728,17.57895848,16.659217651469728Q17.69019374,16.742968081469726,17.82501158,16.777775461469727Q18.47320709,16.945127011469726,18.88468462,17.473189781469728Q19.2961621,18.001252681469726,19.3000116,18.670692181469725L19.3,20.000000481469726Q19.3,20.068944481469728,19.3134502,20.136563281469726Q19.3269005,20.204182581469727,19.3532841,20.267878581469727Q19.3796679,20.331574481469726,19.4179711,20.388899281469726Q19.4562744,20.446224181469727,19.5050251,20.494975081469725Q19.5537758,20.543725981469727,19.6111007,20.582028881469725Q19.6684256,20.620331781469726,19.7321215,20.646715681469725Q19.7958174,20.673099481469727,19.8634366,20.686549681469728Q19.9310559,20.699999781469728,20,20.700000281469727Q20.068944000000002,20.699999781469728,20.1365631,20.686549681469728Q20.2041821,20.673099481469727,20.2678781,20.646715681469725Q20.331574,20.620331781469726,20.3888988,20.582028881469725Q20.4462237,20.543725981469727,20.4949746,20.494975081469725Q20.5437253,20.446224181469727,20.5820284,20.388899281469726Q20.6203318,20.331574481469726,20.6467154,20.267878581469727Q20.673099,20.204182581469727,20.6865494,20.136563281469726Q20.6999998,20.068944481469728,20.7,20.000000481469726L20.6999884,18.662641781469727Q20.6933987,17.516652181469727,19.9890051,16.612680431469727Z" fill-rule="evenodd" fill="#3813FF" fill-opacity="1"/></g></svg>