<svg xmlns="http://www.w3.org/2000/svg" xmlns:xlink="http://www.w3.org/1999/xlink" fill="none" version="1.1" width="18" height="18" viewBox="0 0 18 18"><defs><clipPath id="master_svg0_0_3220"><rect x="-0.699999988079071" y="-0.699999988079071" width="19.399999976158142" height="19.399999976158142" rx="0"/></clipPath></defs><g clip-path="url(#master_svg0_0_3220)"><path d="M13.5,3.04999995L4.5,3.04999995Q3.2780699,3.05000019,2.41403501,3.91403508Q1.5499999500000001,4.7780702,1.5499999500000001,6L1.55000013,12.0000019Q1.5500000699999998,13.2219315,2.41403532,14.085966Q3.2780709999999997,14.950001,4.5,14.950001L13.5,14.950001Q14.72193,14.950001,15.585965,14.085965Q16.450001,13.2219296,16.450001,12L16.450001,6Q16.450001,4.7780707,15.585965,3.91403504Q14.72193,3.04999995,13.5,3.04999995ZM3.4039845,4.9039845Q3.8579688,4.45000017,4.5,4.45000017L13.5,4.45000005Q14.142031,4.45000005,14.596015,4.9039844Q15.049999,5.357969,15.049999,6L15.049999,12Q15.049999,12.6420307,14.596015,13.096015Q14.142031,13.5500002,13.5,13.5500002L4.5,13.5500002Q3.8579692999999997,13.5500002,3.4039843999999997,13.0960159Q2.95000011,12.6420317,2.95000017,12.0000019L2.95000005,6Q2.95000005,5.3579692,3.4039845,4.9039845Z" fill-rule="evenodd" fill="#1947FF" fill-opacity="1"/><path d="M5.25,11.95L9,11.95Q9.0689437,11.95,9.1365628,11.9365497Q9.2041819,11.9230993,9.2678776,11.896715499999999Q9.331573500000001,11.87033182,9.3888984,11.83202863Q9.4462233,11.79372549,9.4949741,11.74497473Q9.543725,11.69622397,9.5820279,11.63889915Q9.6203308,11.58157432,9.6467147,11.51787835Q9.6730986,11.45418239,9.6865492,11.38656318Q9.6999998,11.31894398,9.6999998,11.25Q9.6999998,11.18105602,9.6865492,11.11343676Q9.6730986,11.04581752,9.6467152,10.9821216Q9.6203313,10.918425672,9.582028399999999,10.861100851Q9.543725,10.803776026,9.4949741,10.75502527Q9.4462233,10.70627451,9.3888984,10.6679713Q9.331573500000001,10.62966809,9.2678776,10.60328436Q9.2041819,10.57690063,9.1365628,10.56345034Q9.0689437,10.55000001,9,10.55000001L5.25,10.55000001Q5.181056023,10.55000001,5.11343679,10.56345034Q5.04581757,10.57690063,4.98212165,10.60328436Q4.91842571,10.62966809,4.86110088,10.66797128Q4.80377603,10.70627451,4.75502527,10.75502527Q4.70627457,10.803776026,4.66797137,10.861100849Q4.62966812,10.918425668,4.60328442,10.98212159Q4.57690072,11.04581752,4.56345034,11.11343676Q4.55000007,11.18105602,4.55000001,11.25Q4.55000007,11.31894398,4.56345034,11.38656318Q4.57690066,11.45418239,4.60328436,11.51787835Q4.62966812,11.58157432,4.66797137,11.63889915Q4.70627457,11.69622397,4.75502527,11.74497473Q4.80377603,11.79372549,4.86110088,11.83202863Q4.91842571,11.87033188,4.98212165,11.8967156Q5.04581757,11.9230993,5.11343679,11.9365497Q5.181056023,11.95,5.25,11.95Z" fill-rule="evenodd" fill="#1947FF" fill-opacity="1"/><path d="M11.25,11.95L12.75,11.95Q12.818944,11.95,12.8865632,11.9365497Q12.9541824,11.9230993,13.0178783,11.896715499999999Q13.0815742,11.87033182,13.1388991,11.83202863Q13.196224,11.79372549,13.244974599999999,11.74497473Q13.2937255,11.69622397,13.3320284,11.63889915Q13.3703318,11.58157432,13.3967154,11.51787835Q13.423099,11.45418239,13.4365497,11.38656318Q13.4499998,11.31894398,13.45,11.25Q13.4499998,11.18105602,13.4365497,11.11343676Q13.423099,11.04581752,13.3967154,10.9821216Q13.3703318,10.918425672,13.3320284,10.861100851Q13.2937255,10.803776026,13.244974599999999,10.75502527Q13.196224,10.70627451,13.1388991,10.6679713Q13.0815742,10.62966809,13.0178783,10.60328436Q12.9541824,10.57690063,12.8865632,10.56345034Q12.818944,10.55000001,12.75,10.55000001L11.25,10.55000001Q11.181056023,10.55000001,11.11343679,10.56345034Q11.04581757,10.57690063,10.98212165,10.60328436Q10.91842571,10.62966809,10.86110088,10.66797128Q10.80377603,10.70627451,10.75502527,10.75502527Q10.70627457,10.803776026,10.66797137,10.861100849Q10.62966812,10.918425668,10.60328442,10.98212159Q10.57690072,11.04581752,10.56345034,11.11343676Q10.55000007,11.18105602,10.55000001,11.25Q10.55000007,11.31894398,10.56345034,11.38656318Q10.57690066,11.45418239,10.60328436,11.51787835Q10.62966812,11.58157432,10.66797137,11.63889915Q10.70627457,11.69622397,10.75502527,11.74497473Q10.80377603,11.79372549,10.86110088,11.83202863Q10.91842571,11.87033188,10.98212165,11.8967156Q11.04581757,11.9230993,11.11343679,11.9365497Q11.181056023,11.95,11.25,11.95Z" fill-rule="evenodd" fill="#1947FF" fill-opacity="1"/><path d="M12.75,8.30000001L10.5,8.30000001Q10.431056023,8.30000001,10.36343679,8.31345034Q10.29581757,8.32690063,10.23212165,8.35328436Q10.16842571,8.37966809,10.11110088,8.41797128Q10.05377603,8.45627451,10.00502527,8.50502527Q9.95627457,8.553776026,9.91797137,8.611100849Q9.87966812,8.668425668,9.85328442,8.73212159Q9.82690072,8.79581752,9.81345034,8.86343676Q9.80000007,8.93105602,9.80000001,9Q9.80000007,9.06894398,9.81345034,9.13656318Q9.82690066,9.20418239,9.85328436,9.26787835Q9.87966812,9.33157432,9.91797137,9.38889915Q9.95627457,9.44622397,10.00502527,9.49497473Q10.05377603,9.54372549,10.11110088,9.58202863Q10.16842571,9.62033188,10.23212165,9.6467156Q10.29581757,9.6730993,10.36343679,9.6865497Q10.431056023,9.7,10.5,9.7L12.75,9.7Q12.818944,9.7,12.8865631,9.6865497Q12.9541821,9.6730993,13.0178781,9.646715499999999Q13.081574,9.62033182,13.1388988,9.58202863Q13.196223700000001,9.54372549,13.244974599999999,9.49497473Q13.2937253,9.44622397,13.3320284,9.38889915Q13.3703318,9.33157432,13.3967154,9.26787835Q13.423099,9.20418239,13.4365497,9.13656318Q13.4499998,9.06894398,13.45,9Q13.4499998,8.93105602,13.4365494,8.86343676Q13.423099,8.79581752,13.3967154,8.7321216Q13.3703318,8.668425672,13.3320284,8.611100851Q13.2937253,8.553776026,13.244974599999999,8.50502527Q13.196223700000001,8.45627451,13.1388988,8.4179713Q13.081574,8.37966809,13.0178781,8.35328436Q12.9541821,8.32690063,12.8865628,8.31345034Q12.818944,8.30000001,12.75,8.30000001Z" fill-rule="evenodd" fill="#1947FF" fill-opacity="1"/><path d="M8.25,8.30000001L7.5,8.30000001Q7.431056023,8.30000001,7.36343679,8.31345034Q7.29581757,8.32690063,7.23212165,8.35328436Q7.16842571,8.37966809,7.11110088,8.41797128Q7.05377603,8.45627451,7.00502527,8.50502527Q6.95627457,8.553776026,6.91797137,8.611100849Q6.87966812,8.668425668,6.85328442,8.73212159Q6.82690072,8.79581752,6.81345034,8.86343676Q6.80000007,8.93105602,6.80000001,9Q6.80000007,9.06894398,6.81345034,9.13656318Q6.82690066,9.20418239,6.85328436,9.26787835Q6.87966812,9.33157432,6.91797137,9.38889915Q6.95627457,9.44622397,7.00502527,9.49497473Q7.05377603,9.54372549,7.11110088,9.58202863Q7.16842571,9.62033188,7.23212165,9.6467156Q7.29581757,9.6730993,7.36343679,9.6865497Q7.431056023,9.7,7.5,9.7L8.25,9.7Q8.31894398,9.7,8.38656318,9.6865497Q8.45418239,9.6730993,8.5178783,9.646715499999999Q8.5815742,9.62033182,8.6388991,9.58202863Q8.696224,9.54372549,8.7449747,9.49497473Q8.7937255,9.44622397,8.8320286,9.38889915Q8.8703319,9.33157432,8.8967156,9.26787835Q8.9230994,9.20418239,8.9365497,9.13656318Q8.95,9.06894398,8.95,9Q8.95,8.93105602,8.9365498,8.86343676Q8.9230994,8.79581752,8.8967156,8.7321216Q8.8703319,8.668425672,8.8320286,8.611100851Q8.7937255,8.553776026,8.7449747,8.50502527Q8.696224,8.45627451,8.6388991,8.4179713Q8.5815742,8.37966809,8.5178783,8.35328436Q8.45418239,8.32690063,8.38656312,8.31345034Q8.31894398,8.30000001,8.25,8.30000001Z" fill-rule="evenodd" fill="#1947FF" fill-opacity="1"/></g></svg>