<svg xmlns="http://www.w3.org/2000/svg" xmlns:xlink="http://www.w3.org/1999/xlink" fill="none" version="1.1" width="16" height="16" viewBox="0 0 16 16"><defs><clipPath id="master_svg0_1_17601"><rect x="0" y="0" width="16" height="16" rx="0"/></clipPath></defs><g clip-path="url(#master_svg0_1_17601)"><path d="M9.914666197729492,9.524666786193848L14.262666297729492,13.871333586193849C13.909891297729493,14.339540486193847,13.369234297729491,14.629126086193848,12.784000297729492,14.663333386193848L12.666667297729493,14.666666986193848L3.3333332977294923,14.666666986193848C2.7061567277294922,14.667350286193848,2.1151049477294923,14.373305786193848,1.7373332977294922,13.872666786193847L6.084666697729492,9.52466678619385L7.630000097729492,10.554666786193847L7.707333097729492,10.598666786193847C7.892011597729492,10.688900486193848,8.107988397729493,10.688900486193848,8.292666397729493,10.598666786193847L8.369999897729492,10.554666786193847L9.914666197729492,9.52466678619385L9.914666197729492,9.524666786193848Z" fill="#1947FF" fill-opacity="1"/><path d="M1.3333333730697632,6.356666564941406L4.952666673069763,8.769999964941405L1.3333333730697632,12.389999864941405L1.3333333730697632,6.356666564941406Z" fill="#1947FF" fill-opacity="1"/><path d="M14.666666998999023,6.356666564941406L14.666666998999023,12.389999864941405L11.046667098999023,8.769999964941405L14.666666998999023,6.356666564941406Z" fill="#1947FF" fill-opacity="1"/><path d="M8.2933335,1.4013333466195679L8.3699999,1.445333346619568L13.999333,5.198000036619568L8,9.197999836619568L2,5.198000036619568L7.6300001,1.4446666866195679C7.8274651,1.3134054836195679,8.0797892,1.2969054206195678,8.2926664,1.4013333466195679L8.2933335,1.4013333466195679Z" fill="#1947FF" fill-opacity="1"/></g></svg>