<svg xmlns="http://www.w3.org/2000/svg" xmlns:xlink="http://www.w3.org/1999/xlink" fill="none" version="1.1" width="16" height="16" viewBox="0 0 16 16"><defs><clipPath id="master_svg0_1_17628"><rect x="0" y="0" width="16" height="16" rx="0"/></clipPath></defs><g clip-path="url(#master_svg0_1_17628)"><path d="M14.666666373069763,5.023333549499512L14.666666373069763,11.333333449499513C14.666725373069763,12.392372149499511,13.841214373069763,13.267869949499511,12.783999373069763,13.329999949499511L12.666666373069763,13.333333949499512L3.333333373069763,13.333333949499512C2.2742949730697632,13.333392149499511,1.3987969610697633,12.50788114949951,1.3366667064697633,11.450666949499512L1.3333333730697632,11.333333449499513L1.3333333730697632,5.023333549499514L7.629999973069763,9.221333549499512L7.707333473069763,9.265333649499512C7.8920119730697635,9.355567449499512,8.107988273069763,9.355567449499512,8.292666773069763,9.265333649499512L8.370000273069763,9.221333549499512L14.666666373069763,5.023333549499514L14.666666373069763,5.023333549499512Z" fill="#1947FF" fill-opacity="1"/><path d="M12.666666995231628,2.666666746139527C13.386666995231629,2.666666746139527,14.017999995231628,3.0466667461395263,14.369999995231629,3.6180000861395265L7.999999895231628,7.864666746139527L1.6299999952316284,3.6180000861395265C1.9691578752316286,3.0671443361395263,2.5538774752316282,2.7144247891395263,3.1993332952316287,2.6713334126395263L3.3333333952316284,2.6666667461395264L12.666666995231628,2.666666746139527Z" fill="#1947FF" fill-opacity="1"/></g></svg>